<svg id="visual" viewBox="0 0 960 540" width="960" height="540" xmlns="http://www.w3.org/2000/svg" xmlns:xlink="http://www.w3.org/1999/xlink" version="1.1"><rect x="0" y="0" width="960" height="540" fill="#001220"></rect><defs><linearGradient id="grad1_0" x1="43.8%" y1="0%" x2="100%" y2="100%"><stop offset="14.444444444444446%" stop-color="#fbae3c" stop-opacity="1"></stop><stop offset="85.55555555555554%" stop-color="#fbae3c" stop-opacity="1"></stop></linearGradient></defs><defs><linearGradient id="grad1_1" x1="43.8%" y1="0%" x2="100%" y2="100%"><stop offset="14.444444444444446%" stop-color="#fbae3c" stop-opacity="1"></stop><stop offset="85.55555555555554%" stop-color="#cc5867" stop-opacity="1"></stop></linearGradient></defs><defs><linearGradient id="grad1_2" x1="43.8%" y1="0%" x2="100%" y2="100%"><stop offset="14.444444444444446%" stop-color="#593762" stop-opacity="1"></stop><stop offset="85.55555555555554%" stop-color="#cc5867" stop-opacity="1"></stop></linearGradient></defs><defs><linearGradient id="grad1_3" x1="43.8%" y1="0%" x2="100%" y2="100%"><stop offset="14.444444444444446%" stop-color="#593762" stop-opacity="1"></stop><stop offset="85.55555555555554%" stop-color="#001220" stop-opacity="1"></stop></linearGradient></defs><defs><linearGradient id="grad2_0" x1="0%" y1="0%" x2="56.3%" y2="100%"><stop offset="14.444444444444446%" stop-color="#fbae3c" stop-opacity="1"></stop><stop offset="85.55555555555554%" stop-color="#fbae3c" stop-opacity="1"></stop></linearGradient></defs><defs><linearGradient id="grad2_1" x1="0%" y1="0%" x2="56.3%" y2="100%"><stop offset="14.444444444444446%" stop-color="#cc5867" stop-opacity="1"></stop><stop offset="85.55555555555554%" stop-color="#fbae3c" stop-opacity="1"></stop></linearGradient></defs><defs><linearGradient id="grad2_2" x1="0%" y1="0%" x2="56.3%" y2="100%"><stop offset="14.444444444444446%" stop-color="#cc5867" stop-opacity="1"></stop><stop offset="85.55555555555554%" stop-color="#593762" stop-opacity="1"></stop></linearGradient></defs><defs><linearGradient id="grad2_3" x1="0%" y1="0%" x2="56.3%" y2="100%"><stop offset="14.444444444444446%" stop-color="#001220" stop-opacity="1"></stop><stop offset="85.55555555555554%" stop-color="#593762" stop-opacity="1"></stop></linearGradient></defs><g transform="translate(960, 0)"><path d="M0 378C-34 336.8 -68 295.6 -117.5 283.6C-166.9 271.7 -231.8 289.1 -267.3 267.3C-302.8 245.5 -308.9 184.6 -322.4 133.6C-336 82.5 -357 41.2 -378 0L0 0Z" fill="#232745"></path><path d="M0 283.5C-25.5 252.6 -51 221.7 -88.1 212.7C-125.2 203.8 -173.8 216.8 -200.5 200.5C-227.1 184.1 -231.7 138.5 -241.8 100.2C-252 61.9 -267.7 30.9 -283.5 0L0 0Z" fill="#96446e"></path><path d="M0 189C-17 168.4 -34 147.8 -58.7 141.8C-83.5 135.8 -115.9 144.5 -133.6 133.6C-151.4 122.8 -154.4 92.3 -161.2 66.8C-168 41.2 -178.5 20.6 -189 0L0 0Z" fill="#f17c53"></path><path d="M0 94.5C-8.5 84.2 -17 73.9 -29.4 70.9C-41.7 67.9 -57.9 72.3 -66.8 66.8C-75.7 61.4 -77.2 46.2 -80.6 33.4C-84 20.6 -89.2 10.3 -94.5 0L0 0Z" fill="#fbae3c"></path></g><g transform="translate(0, 540)"><path d="M0 -378C34.7 -340.3 69.3 -302.7 120.5 -291C171.8 -279.4 239.5 -293.8 267.3 -267.3C295.1 -240.8 282.9 -173.4 294.7 -122.1C306.5 -70.7 342.3 -35.4 378 0L0 0Z" fill="#232745"></path><path d="M0 -283.5C26 -255.2 52 -227 90.4 -218.3C128.8 -209.5 179.6 -220.3 200.5 -200.5C221.3 -180.6 212.2 -130.1 221 -91.6C229.9 -53 256.7 -26.5 283.5 0L0 0Z" fill="#96446e"></path><path d="M0 -189C17.3 -170.2 34.7 -151.3 60.3 -145.5C85.9 -139.7 119.7 -146.9 133.6 -133.6C147.5 -120.4 141.5 -86.7 147.4 -61C153.3 -35.4 171.1 -17.7 189 0L0 0Z" fill="#f17c53"></path><path d="M0 -94.5C8.7 -85.1 17.3 -75.7 30.1 -72.8C42.9 -69.8 59.9 -73.4 66.8 -66.8C73.8 -60.2 70.7 -43.4 73.7 -30.5C76.6 -17.7 85.6 -8.8 94.5 0L0 0Z" fill="#fbae3c"></path></g></svg>