<svg id="visual" viewBox="0 0 900 600" width="900" height="600" xmlns="http://www.w3.org/2000/svg" xmlns:xlink="http://www.w3.org/1999/xlink" version="1.1"><rect x="0" y="0" width="900" height="600" fill="transparent"></rect><defs><linearGradient id="grad1_0" x1="33.3%" y1="0%" x2="100%" y2="100%"><stop offset="20%" stop-color="#fbae3c" stop-opacity="1"></stop><stop offset="80%" stop-color="#fbae3c" stop-opacity="1"></stop></linearGradient></defs><defs><linearGradient id="grad1_1" x1="33.3%" y1="0%" x2="100%" y2="100%"><stop offset="20%" stop-color="#fbae3c" stop-opacity="1"></stop><stop offset="80%" stop-color="#ffd69f" stop-opacity="1"></stop></linearGradient></defs><defs><linearGradient id="grad1_2" x1="33.3%" y1="0%" x2="100%" y2="100%"><stop offset="20%" stop-color="#ffffff" stop-opacity="1"></stop><stop offset="80%" stop-color="#ffd69f" stop-opacity="1"></stop></linearGradient></defs><defs><linearGradient id="grad2_0" x1="0%" y1="0%" x2="66.7%" y2="100%"><stop offset="20%" stop-color="#fbae3c" stop-opacity="1"></stop><stop offset="80%" stop-color="#fbae3c" stop-opacity="1"></stop></linearGradient></defs><defs><linearGradient id="grad2_1" x1="0%" y1="0%" x2="66.7%" y2="100%"><stop offset="20%" stop-color="#ffd69f" stop-opacity="1"></stop><stop offset="80%" stop-color="#fbae3c" stop-opacity="1"></stop></linearGradient></defs><defs><linearGradient id="grad2_2" x1="0%" y1="0%" x2="66.7%" y2="100%"><stop offset="20%" stop-color="#ffd69f" stop-opacity="1"></stop><stop offset="80%" stop-color="#ffffff" stop-opacity="1"></stop></linearGradient></defs><g transform="translate(900, 0)"><path d="M0 297.5C-39.2 294.2 -78.4 291 -113.8 274.8C-149.2 258.6 -180.8 229.4 -196.6 196.6C-212.3 163.7 -212.2 127.1 -226.4 93.8C-240.5 60.4 -269 30.2 -297.5 0L0 0Z" fill="#ffeacf"></path><path d="M0 198.3C-26.1 196.2 -52.3 194 -75.9 183.2C-99.5 172.4 -120.6 153 -131.1 131.1C-141.5 109.1 -141.5 84.8 -150.9 62.5C-160.3 40.3 -179.3 20.1 -198.3 0L0 0Z" fill="#2f4858"></path><path d="M0 99.2C-13.1 98.1 -26.1 97 -37.9 91.6C-49.7 86.2 -60.3 76.5 -65.5 65.5C-70.8 54.6 -70.7 42.4 -75.5 31.3C-80.2 20.1 -89.7 10.1 -99.2 0L0 0Z" fill="#fbae3c"></path></g><g transform="translate(0, 600)"><path d="M0 -297.5C42.1 -296.4 84.2 -295.4 113.8 -274.8C143.5 -254.2 160.7 -214.1 184.6 -184.6C208.4 -155 238.8 -136.1 258.7 -107.2C278.6 -78.2 288 -39.1 297.5 0L0 0Z" fill="#ffeacf"></path><path d="M0 -198.3C28.1 -197.6 56.1 -196.9 75.9 -183.2C95.7 -169.5 107.2 -142.7 123 -123C138.9 -103.4 159.2 -90.8 172.5 -71.4C185.7 -52.1 192 -26.1 198.3 0L0 0Z" fill="#2f4858"></path><path d="M0 -99.2C14 -98.8 28.1 -98.5 37.9 -91.6C47.8 -84.7 53.6 -71.4 61.5 -61.5C69.5 -51.7 79.6 -45.4 86.2 -35.7C92.9 -26.1 96 -13 99.2 0L0 0Z" fill="#fbae3c"></path></g></svg>