<svg xmlns="http://www.w3.org/2000/svg" viewBox="0 0 512 512" xml:space="preserve"><path style="fill:#fff" d="M153 510c-20 0-37-17-37-38V40c0-21 17-38 37-38h206c20 0 37 17 37 38v432c0 21-17 38-37 38H153z"/><path style="fill:#aac1ce" d="M359 4c19 0 35 16 35 36v432c0 20-16 36-35 36H153c-19 0-35-16-35-36V40c0-20 16-36 35-36h206m0-4H153c-21 0-39 18-39 40v432c0 22 18 40 39 40h206c21 0 39-18 39-40V40c0-22-18-40-39-40z"/><path style="fill:#aac1ce" d="M375 44v396H137V44h238m4-4H133v404h246V40zM293 26h-50c-3 0-5-2-5-4s2-4 5-4h50c2 0 4 2 4 4s-2 4-4 4z"/><circle style="fill:#aac1ce" cx="219" cy="22.2" r="4.1"/><path style="fill:#aac1ce" d="M256 496a20 20 0 1 1 20-20c0 11-9 20-20 20zm0-35a16 16 0 1 0 16 15c0-8-7-15-16-15z"/><path style="fill:#e04f5f" d="M155 206h79v79h-79z"/><path style="fill:#f9b53d" d="M226 332v63h-63v-63h63m8-8h-79v79h79v-79z"/><path style="fill:#c7d5dd" d="M256 224h101v8H256zM256 254h64v8h-64z"/><path style="fill:#c7d5dd" d="M256 224h101v8H256zM256 254h64v8h-64zM256 342h101v8H256zM256 372h64v8h-64zM256 106h101v8H256zM256 136h64v8h-64z"/><path style="fill:#25b6d2" d="M226 96v63h-63V96h63m8-8h-79v79h79V88z"/></svg>