<svg xmlns="http://www.w3.org/2000/svg" viewBox="0 0 512 512" xml:space="preserve"><path style="fill:#415e72" d="M0 355V31c0-6 5-10 10-10h492c5 0 10 4 10 10v324H0z"/><path style="fill:#cfdce5" d="M512 355v42c0 6-5 10-10 10H10c-5 0-10-4-10-10v-42h512zM146 481h220v10H146z"/><path style="fill:#aec4ce" d="M329 481H183l11-74h124z"/><path style="fill:#fff" d="M21 42h470v292H21z"/><path style="fill:#94a7af" d="M318 407H194l-6 41 132-28z"/><path style="fill:#25b6d2" d="M95 164h18v51H95z"/><path style="fill:#aec4ce" d="M63 185h19v30H63zM126 136h18v79h-18z"/><path style="fill:#25b6d2" d="M157 85h19v130h-19z"/><path style="fill:#aec4ce" d="M188 111h19v104h-19z"/><path style="fill:#25b6d2" d="M219 153h19v62h-19z"/><path style="fill:#aac1ce" d="M63 258h175v8H63zM63 288h135v8H63zM274 258h175v8H274zM274 288h135v8H274z"/><path style="fill:#e04f5f" d="M356 86a69 69 0 1 0 69 70h-69V86z"/><path style="fill:#25b6d2" d="m416 95-49 49h70c0-18-8-36-21-49z"/><path style="fill:#cfdce5" d="M367 75v69l49-49a69 69 0 0 0-49-20z"/></svg>