<svg xmlns="http://www.w3.org/2000/svg" viewBox="0 0 501.6 501.6" xml:space="preserve"><path style="fill:#40596b" d="M480.7 80.5H20.9A21 21 0 0 0 0 101.4v308.2a21 21 0 0 0 20.9 20.9h459.8a21 21 0 0 0 20.9-20.9V101.4a21 21 0 0 0-21-21z"/><path style="fill:#fff" d="M31.3 111.8h438.9v257H31.3z"/><path style="fill:#cdd6e0" d="M154.6 431.5h191.2v56.4H154.6z"/><path style="fill:#f2f2f2" d="M97.2 488h307.2v13.6H97.2z"/><path style="fill:#acb3ba" d="M154.6 431.5h191.2v15.7H154.6z"/><path style="fill:#334a5e" d="M478.6 305.1H368.8c-6.2 0-10.4 4.2-10.4 10.5V491c0 6.3 4.2 10.5 10.4 10.5h109.8c6.2 0 10.4-4.2 10.4-10.5V315.6c0-5.3-4.2-10.5-10.4-10.5z"/><path style="fill:#fff" d="M374.4 333.9h99.3v133.7h-99.3z"/><path style="fill:#f2f2f2" d="m374.1 467.1 99.2-133.8v133.8z"/><path style="fill:#4cdbc4" d="M439.9 314.5h-32.4c-1 0-2 1-2 2.1s1 2 2 2H440c1 0 2-1 2-2s-1-2-2-2z"/><circle style="fill:#4cdbc4" cx="423.2" cy="481.7" r="7.3"/><circle style="fill:#f2f2f2" cx="250.8" cy="400.2" r="12.5"/><path style="fill:#84dbff" d="M372 87.8v-6.3c0-45-36.6-81.5-81.5-81.5a84.4 84.4 0 0 0-64.8 31.3 67.3 67.3 0 0 0-82.5 51.2 44 44 0 0 0-34.5 44c0 25 19.8 44.9 44.9 44.9H349c25 0 45-19.9 45-45a49.3 49.3 0 0 0-22-38.6z"/><path style="fill:#40596b" d="M351 194.4v-33.5l-16.6-6.3c-2.1-7.3-4.2-13.5-8.4-19.8l7.3-15.7-24-24-15.7 7.3c-6.3-3.1-12.5-6.3-19.8-8.4l-6.3-16.7H234L227.8 94c-7.3 2.1-13.6 4.2-19.9 8.4l-15.6-7.3-24 24 7.2 15.7c-3 6.3-6.2 12.5-8.3 19.8l-16.7 6.3v33.5l16.7 6.2c2 7.3 4.2 13.6 8.3 19.9l-7.3 15.6 24 24L208 253c6.3 3.1 12.6 6.2 19.9 8.3L234 278h33.4l6.3-16.7c7.3-2 13.5-4.2 19.8-8.3l15.7 7.3 24-24-7.3-15.7c3.1-6.3 6.3-12.6 8.4-19.9l16.7-6.2zm-59.5-16.8c0 23-18.8 40.8-40.7 40.8-23 0-40.8-17.8-40.8-40.8s18.8-40.7 40.8-40.7c23 0 40.7 17.7 40.7 40.7z"/><path style="fill:#ff7058" d="M294.7 133.7c-24-24-62.7-24-86.8 0s-24 62.7 0 86.8c24 24 62.7 24 86.8 0 24-23 24-62.7 0-86.8zM280 207c-15.6 15.7-41.8 15.7-57.4 0s-15.7-41.8 0-57.5 41.8-15.7 57.4 0a41 41 0 0 1 0 57.5z"/></svg>