<svg id="visual" viewBox="0 0 900 600" width="900" height="600" xmlns="http://www.w3.org/2000/svg" xmlns:xlink="http://www.w3.org/1999/xlink" version="1.1"><g transform="translate(465.3392126754068 247.02883394629967)"><path d="M115 -161.3C162.5 -148.5 223.6 -139.3 242.7 -107.8C261.7 -76.3 238.8 -22.7 238.5 39.9C238.3 102.5 260.9 174.1 236.5 208.2C212 242.4 140.7 239.2 76.1 257.5C11.5 275.7 -46.4 315.4 -97 309.8C-147.6 304.3 -190.9 253.7 -225 201.9C-259.1 150.1 -284 97.3 -280.6 47.2C-277.1 -2.9 -245.5 -50.3 -216.2 -92.3C-187 -134.3 -160.3 -171.1 -124.7 -189.3C-89 -207.5 -44.5 -207.3 -5.4 -198.9C33.8 -190.6 67.6 -174.2 115 -161.3" fill="#5e87a0"></path></g></svg>