<svg width="586" height="356" viewBox="0 0 586 356" fill="none" xmlns="http://www.w3.org/2000/svg">
<path fill-rule="evenodd" clip-rule="evenodd" d="M0 258.127C25.4499 331.712 349.494 457.649 523.996 208.785C545.996 181.577 543.59 160.932 513.768 184.737L423.583 256.769C419.537 259.988 413.642 259.322 410.42 255.287C407.198 251.245 407.858 245.355 411.903 242.137L560.531 123.421C605.019 87.9207 585.804 46.3682 544.453 79.4L389.336 200.205C385.29 203.424 379.395 202.758 376.173 198.723C372.951 194.682 373.618 188.792 377.657 185.573L566.733 34.5567C590.288 16.353 578.216 -15.7255 528.611 9.02054C452.764 46.8579 343.756 149.179 259.139 186.35C195.318 214.387 188.92 198.553 202.494 177.966C209.063 159.299 331.208 92.8961 299.686 65.5905C281.471 49.8092 89.8849 170.184 0 258.127Z" fill="#33658a"/>
</svg>
