<svg xmlns="http://www.w3.org/2000/svg" width="1024" height="1024"><path d="M394 150.7a9320.8 9320.8 0 0 0 35.6 0 24075.1 24075.1 0 0 1 106.6-.2 5277.5 5277.5 0 0 0 42.6 0c50.3-.3 95 18 131 53 32.6 33.6 47.9 77 47.6 123.3v9.7c0 16.4-1.4 32.3-6 48.2l-.9 2.6c-3.6 12.1-9.7 23-16.5 33.7l1.2 1.6c19.9 26.2 22.4 59.4 22.3 91v9c.4 37.4-6.7 74.6-29.5 105.4l-2.3 3.2c-5.8 7.7-12 14.8-18.7 21.8l-2.1 2.3a160.9 160.9 0 0 1-102.1 47.8h-10.2a4075.2 4075.2 0 0 1-45.8.2 34885.4 34885.4 0 0 1-128 .2 3185.2 3185.2 0 0 1-24.4 0c-45.5.3-88.5-16.7-121.3-48.4a148.6 148.6 0 0 1-45.7-113v-3.3c-.6-33.3-.6-66.6-.5-99.9a17043.9 17043.9 0 0 0 0-77.2v-3.3c.1-2.4.1-2.4 1.1-3.4l4.6-.1h30.1a22587.4 22587.4 0 0 1 47-.1h10a285836895 285836895 0 0 0 30.4 0h2.6a39958.7 39958.7 0 0 1 139-.3h14.5c8.2 0 14.8-2 21.7-6.4 4.3-4.3 5.9-9 6.1-15.1a20.9 20.9 0 0 0-8-13 31.4 31.4 0 0 0-20-5.2H478.8a18269.7 18269.7 0 0 0-87.3-.3l-41.5-.1h-2.6A901209.9 901209.9 0 0 1 228 314v-13.4l-.1-3.9a106.2 106.2 0 0 1 3.7-30A148.3 148.3 0 0 1 279 191c21.2-19.8 50.6-33 79-38.1l2.7-.5c11.1-1.8 22.1-1.8 33.3-1.8ZM343 174.2l-2.7.8-6.2 2c3.1 1 5.2 1 8.4.3a192351816.4 192351816.4 0 0 0 7.7-1.7 231.7 231.7 0 0 1 53.7-3.9H437a20786.9 20786.9 0 0 1 107.2 0 4904.8 4904.8 0 0 1 21.8 0c16.3 0 32.5.9 48.5 4.5l3 .6A154 154 0 0 1 690 217l2.1 2a135.2 135.2 0 0 1 34.6 58.6l.7 2c3.2 11.2 4 22.5 4 34v2.3a153.6 153.6 0 0 1-46.6 108.3c-26.9 25.2-63.6 29.1-98.8 29a7926.4 7926.4 0 0 0-41.8.1 35099 35099 0 0 1-137.3.3c-15.6 0-31.2.8-46 6l-2.3.9c-16 5.8-35.9 16.5-43.6 32.5v1h-2c-1.8 1.8-1.8 1.8-3 4l1 3c2.7-1.2 2.7-1.2 5-3l2 2 2-2.6c2.6-3.2 5.6-5.5 9-7.8l5.8-5c20.5-18 43.3-20 69.3-20a7255.7 7255.7 0 0 0 47 .2h40.4a565770 565770 0 0 1 34.5.2h2.3a36948.5 36948.5 0 0 0 86.5.2c19.3.2 19.3.2 38.1-3.3 3.3-1 5.8-1.3 9.1-.9 1.9 1.5 1.9 1.5 3 3l-1.1 2.2c-1.1 3.5-.5 4.9 1 8.3 6 14.6 3.9 30.2-1.9 44.5a88.7 88.7 0 0 1-44.6 46.4c-59.4 29.2-170.5 29-233 8.4a86.7 86.7 0 0 1-52.7-44.2l-1-2.2c-2.2-4.7-2.2-4.7-5.7-8.4-1.6 2.3-1.6 2.3-3 5l1 3-2 1c3 17 14 31.6 27.7 41.6 37.6 24.8 82.1 25.7 125.7 25.7h6.4c15.6 0 31.2-.3 46.8-1.2l4-.2c31.8-2.1 65.1-6.5 94.4-19.9l2.5-1c20.8-9.6 37-29 45.3-50a80.2 80.2 0 0 0 5.4-28.7l.1-2.8c0-8.7-1.6-16.4-6.2-23.9l-1.5-2.4a42.9 42.9 0 0 0-5.6-6.2l1-3c7.7 3.2 10.6 7.7 13.7 15 7.2 17.7 3.8 38.1-3.1 55.2A102 102 0 0 1 627 580a272.2 272.2 0 0 1-66.4 16.2l-3.5.5c-25.4 3-51 3.6-76.6 3.6h-11c-46.6 0-99.2-1-134.8-35.5-9-9.3-16.4-22-18.7-34.8-1.4 2.4-1.4 2.4-2 5l-2 1-.5 2-.5 2-2 1a78.4 78.4 0 0 0 32.2 47.6 158 158 0 0 0 72 22.7c10.8 1 21.6.9 32.3.9a53644.3 53644.3 0 0 1 34.7 0c74 1.4 74 1.4 144.8-17.2l2-.9a133.9 133.9 0 0 0 39-27.1l2.6-2.5a107.1 107.1 0 0 0 29.6-70.8 54 54 0 0 0-12-38.1c-2-2.4-2.9-3.6-3.2-6.6 3.3.5 5.5 1.4 7.8 3.9 12.1 16.4 13 36.2 10.9 55.8-3.9 24.7-16.8 45.3-33.7 63.3l-1.7 2c-31.6 34.8-88 40.7-131.8 42.9-9 .4-18.1.3-27.2.3a513463680.2 513463680.2 0 0 1-62.7.1c-41 .3-88-5.3-118.7-35.4-8.8-9.2-15-20.7-20.9-31.9l-5 2c-.7 2-.7 2-1 4l-2 2c12.6 27 33.2 42.6 60.8 53 8.2 2.8 16.7 5 25.2 7v4c-28.5-3.8-58.9-16.5-77.4-39-3.4-4.4-6.2-9-9-13.8-1.4-2.3-1.4-2.3-3.6-3.1-2.3-.1-3.6.3-5.8 1.3L284 569c5.7 19.3 24.8 36.3 42 46 29.3 15.6 59.8 17.2 92.2 17.2a72935.8 72935.8 0 0 1 40.2 0c38.7.1 38.7.1 77.4-1l2.5-.2c22-1.1 44.4-3.2 65.7-9l2.4-.6c38.5-10.5 71.3-32.5 91.6-67.4 15-26.4 21.1-58.4 13-88-2.8-8.6-7-17.3-13.7-23.6-1.3-1.4-1.3-1.4-1.3-4.4 3.3.3 4.7.7 7 3.2 16.2 23.1 18.7 48.5 14 76-1.4 7.1-3.5 14-6 20.8l-1 3a124.3 124.3 0 0 1-25 39l-2.3 2.7a109 109 0 0 1-19.3 17.5c-38.8 28.6-86.9 33.7-133.6 35.9l-2.9.1a1483.3 1483.3 0 0 1-86 1c-97.8.2-97.8.2-132.9-29.2l-3-2.5c-10-8.7-18.3-19-25-30.5l-3 1v2l-1.9.7c-2.6 1.6-3.2 2.4-4.1 5.3 9.8 24.8 35.6 42.4 59 52.9 29.7 12.8 62 13.6 94 13.5h12.4a7534.7 7534.7 0 0 0 45 0 10795.4 10795.4 0 0 0 33.2-.1 403.9 403.9 0 0 0 71.4-4.6 193.8 193.8 0 0 0 100.4-48.8c27-25.2 39.5-64 41.8-99.8.5-21.5-4.8-44-19-60.5-2.2-2.6-2.2-2.6-2.2-5.6 3 .3 4.7.7 7 2.8 17.3 21.7 20.9 49.9 18 76.8-4.6 38.3-23.7 76-54 100.4a207.7 207.7 0 0 1-97.4 40.4c-22.9 3.7-46 4-69.2 3.9h-9.9a10648 10648 0 0 1-68 0h-12.2c-50.7.2-100-7-137.4-44l-1.6-1.7A60.3 60.3 0 0 1 274 599l-4 2v2l-4 1c1.3 3.1 1.3 3.1 4 5v2l2 2 3.1 4.2c3 3.8 6.1 7 9.9 10.1 1.3 1 2.5 2.2 3.7 3.3 23.8 22.5 58.7 32.5 90.3 36.4l2 .2c7.8 1 15.7 1 23.6 1a9813.6 9813.6 0 0 1 50.3 0 11051 11051 0 0 1 64 .1c63.2.3 128.7-9.5 175.5-55.7 8.4-8.4 15.3-17.6 21.6-27.6l1.2-2a150 150 0 0 0 22.1-80.7V500c-.1-26.5-5-52.6-23.3-72.9l-1.8-1.5c-1.2-1.5-1.2-1.5-1.2-3.3 1.4-3.2 3.5-5.8 5.6-8.6 7.9-10.7 17-24.9 16.4-38.6-2.2 3.4-4 6.9-5.7 10.5-3.3 6.8-7 13.2-11.3 19.5l-4-1c2-4.3 4.2-8.4 6.8-12.5 19.3-32 23.7-70.9 15-106.9A158 158 0 0 0 703 222l-2.2-2.6c-4.2-5-8.8-9.3-13.8-13.4l-2.8-2.3c-28-22.4-62.4-35.9-98.6-35.8h-2.8a3821.4 3821.4 0 0 0-44.2-.1 40728.6 40728.6 0 0 0-147.3-.2c-16.7 0-32.4 1.4-48.4 6.6Zm-67.7 44c-2.4 2.5-2.4 2.5-2.2 4.8 3.5-1.6 6.2-3.6 9.2-6 31-23.6 67.5-32.3 105.7-32.3a8940.6 8940.6 0 0 0 24.2 0h14.8a23667 23667 0 0 1 101.6 0 7140 7140 0 0 0 42 0c17-.1 33.9 1 50.2 6l2.7.8c8.2 2.5 16 5.7 23.6 9.5l3.5 1.8c31.7 17 53 45.6 63.2 79.5 5.3 18.5 5 38.9 1 57.6-.8 3-.8 3-.7 6.1h-4l.7-2.7c7.1-32.3 2-65.6-15.6-93.6-2.7-4.2-5.8-8-9.1-11.7l-2.5-2.9c-20.2-23-46-36.2-75.4-43.4l-2-.4c-9.7-2.3-19.5-2.5-29.5-2.7h-2l-16.2-.2H556a6406 6406 0 0 0-153 0h-11c-46.2 0-88.7 11.6-122.4 44.6-5.2 5.1-9 10.7-12.6 17l-2 3v3l4 1 1.6-2 2.1-2.8 2.2-2.6c2.1-2.6 2.1-2.6 4.4-4.8 2-1.6 2-1.6 1.7-3.8l1.7-.7c2.8-1.6 4.6-3.5 6.9-5.7A129.4 129.4 0 0 1 321 211l3.4-1.4c7.8-2.8 15.7-4.6 23.8-6.3l3-.6c22-4.3 44.3-4 66.7-4h11.5a14472.3 14472.3 0 0 1 79.3 0h14.4c50.4-.2 95.7 5.3 133.9 41.3l2.3 2.1c18.4 17.5 30 43.9 31 69.1.5 21.4-2.6 39.2-13.3 57.8l-1.6 3a86.5 86.5 0 0 1-51.4 38c-16 4.3-31.9 4.2-48.2 4.2a16748.9 16748.9 0 0 0-76.2.1h-2a37940.4 37940.4 0 0 1-110.3.3c-34.5 0-71.5 5.8-98.3 29.4l-1.5 1.3a124.2 124.2 0 0 0-43.4 73.9c-.5 3.7-.5 3.7 1.2 5.5 1.7 1.6 1.7 1.6 4.7 1.3 1.9-2.2 1.9-2.2 3-5l-.6-2-.4-2 1.8-1.8c2.3-2.3 3.3-4.2 4.6-7l1.4-3 1.3-3A162.6 162.6 0 0 1 286 464l1.6-2a102.6 102.6 0 0 1 36-26.5c3.4-1.7 6.6-3 10.4-3.5v3l-2.7 1c-31.7 13.1-54.1 39.3-68.3 70-2.7 6.6-5 13.2-7 20 1 1.3 1 1.3 3.6 1h2.4l1-4 4 1v2h2c1.8-3 2-4.2 2-8h2l1-1.9a220.5 220.5 0 0 1 33-50.1l2-2.2a116.6 116.6 0 0 1 62.6-32.1l2.4-.5c15-2.7 30.4-2.3 45.6-2.3a14690.5 14690.5 0 0 0 49.2-.1h3.8a28549.8 28549.8 0 0 1 125.5-.3 106 106 0 0 0 51.7-10.9c25.3-13 41.6-37 52.2-62.6h2c-4.4 23.4-22.7 46.7-42 60-21.7 14-43.7 17.5-69.1 17.4a5544.9 5544.9 0 0 0-42.5 0 25309 25309 0 0 1-133 .3h-6.2c-38.5 0-71.7 7.3-100.1 34.9-9.4 9.4-17 20.2-23.8 31.6l-1.3 2.1c-2 3.6-3.5 6.6-4 10.7h3l1 5h4c2-2.4 3.5-4.7 5.2-7.3l3-4.4 1.4-2.3c3.2-4.6 6.8-8.8 10.4-13l2.2-2.6a108.4 108.4 0 0 1 55.4-34.2l2.2-.6c14.4-3.6 28.4-3.9 43-3.9a8163 8163 0 0 0 42.8 0 36487.2 36487.2 0 0 1 140-.3c34.9 0 65.7-7.7 91.4-32.4a144.4 144.4 0 0 0 40.2-99.3c0-38.2-14.6-70-41.3-97.2-18.1-18-40.7-30.6-65.3-37.3l-2-.5a193.7 193.7 0 0 0-49-5.1 5912.3 5912.3 0 0 1-24 0H531a15826 15826 0 0 0-70.4 0 11233.6 11233.6 0 0 0-72.6-.1c-40.4-.2-85.2 9.9-112.7 41.7Zm-4.7 31c-6 6.7-6 6.7-8.5 14.8h2v2h-2v2l-3 1v6l4 1 1-4h2v-2h2c1.4-2 2.7-4.1 4-6.3a108.4 108.4 0 0 1 18.2-22A89.4 89.4 0 0 1 334 219v3l-1.6.6c-24.3 10-46.9 22.7-58.8 47.4-1 3.4-.9 6.5-.6 10l4 1 2-3.1a355862856.2 355862856.2 0 0 0 5-8.2c12-19.3 12-19.3 20-22.7-1 3.6-2.7 5.9-5.2 8.6A56.3 56.3 0 0 0 286 278l1 5c-.4 2.8-.4 2.8-1 5l5 2a19 19 0 0 0 2-10h4l.9-1.7c5.5-10.5 10.9-20.5 19.1-29.3l2.3-2.5c21.2-22.7 50.6-30.2 80.7-31.5a630.8 630.8 0 0 1 20.2-.2 5970.6 5970.6 0 0 1 46 0 12202.1 12202.1 0 0 0 58.4 0c43.6-.1 85.8 3.8 118.6 35.9 18 18.3 28 41.7 28.3 67.3a79 79 0 0 1-19.5 54l-1.5 1.8c-7.3 8-17 13-27.1 16.5l-2 .7a162.6 162.6 0 0 1-50.7 5.4 6598.1 6598.1 0 0 0-44.6 0H487.8a158896.9 158896.9 0 0 1-32.7.1H453a21661.4 21661.4 0 0 0-82 .1c-34.7 0-69.4 6.4-96 30.4l-2.8 2.5A114 114 0 0 0 247 467l-1.7 3.6c-2 5.5-1.6 11.1-1.5 16.9v3.4l.2 8.1h2l1.4-3.7c4.3-10.5 9-20 15.6-29.3l1.8-2.6c19.4-25.5 46.2-41 77.1-48.2l2.6-.6c16.2-3.5 32.2-3.9 48.6-3.9a8969.7 8969.7 0 0 0 44.7 0l32.5-.1h2.1a51541.1 51541.1 0 0 1 31.3 0h2a19403.5 19403.5 0 0 0 78.4-.2c29.6 0 55.5-5.7 77.5-26.9A95.6 95.6 0 0 0 687 316a100.5 100.5 0 0 0-26.8-67.1c-4-4.8-8.3-9-13.2-12.9l-1.5-1.2c-30-23.8-64.6-32-102.3-32a12704.7 12704.7 0 0 1-57 0 14360.6 14360.6 0 0 1-73-.1c-52.6-.2-105 5.7-142.7 46.6Zm48 4.2c-3.5 3.9-6 8.1-8.5 12.6l-1.5 2.7A60.5 60.5 0 0 0 303 283h2v6l2 1v2h2c1-4.1 1-4.1 0-8l6 1 1.3-1.9c4-5.8 8.2-11.5 12.7-17.1l1.3-1.8c14.1-18 39.5-27.6 61.5-30.7 7-.8 14-.7 21.1-.7a10337.1 10337.1 0 0 0 51.7 0 11744 11744 0 0 0 65.8-.1c46-.2 46-.2 62.5 6.5l2.4 1a99.5 99.5 0 0 1 54.6 49.4c4 9.8 5.6 19.2 5.5 29.8v3.3a58.9 58.9 0 0 1-15.4 40.5c-20 18.8-47.2 18.3-73 18.2a7754.2 7754.2 0 0 0-49.8 0 26893.2 26893.2 0 0 1-79.2.1h-2.4a26967 26967 0 0 0-91.5.1c-34.9 0-67.3 6-93.1 31.4l-2.1 2c-4 4.5-5.3 7.5-5.3 13.6 0 1.8.2 3.6.4 5.4 3.4-1.1 3.7-1.6 5.6-4.4 11-15 27.2-29.9 45.8-34.1l3.6-.5c-1 3-1 3-4.5 4.8l-4.4 2c-11.3 5-20 11.7-29.1 20.2l-2 1.8a84.6 84.6 0 0 0-12 15.2l-2 3c-.4 2.1-.4 2.1-.4 4.4l-.1 2.6-.1 2.7-.1 2.7-.3 6.6h2l1.5-3.2a111 111 0 0 1 63.6-56.5c16.6-5.6 33.8-8.5 51.3-8.4h13a18328 18328 0 0 0 47-.1H459a28696.8 28696.8 0 0 1 117.7-.3c24.6.1 51.4-2.5 70.2-20.2A80.1 80.1 0 0 0 668 314c-1.4-24.4-13-47-30.8-63.8-32.7-27.7-69.8-31.7-111.1-31.6h-14a9332.6 9332.6 0 0 0-74 0h-14c-40.6 0-76.5 3-105.7 34.8Zm89.3-17-3.5.1a99 99 0 0 0-70 29.8c-4.2 5-9.4 11-10.3 17.7l1 2h2v2l6 1 1.5-2.2A82 82 0 0 1 388 253a189.6 189.6 0 0 1 36.4-2.3h23.8a12756.7 12756.7 0 0 1 74.5 0 3838.2 3838.2 0 0 0 30.8 0c23.8-.2 45.5 5.3 63.2 22a62.1 62.1 0 0 1 17.7 44.3 41.5 41.5 0 0 1-13.1 29.8c-4.9 4.4-10.3 8.2-15.7 12L601 362v1c11.3-.4 19.6-5.9 27.7-13.5a57.4 57.4 0 0 0 15.5-40.7 75.5 75.5 0 0 0-27.5-51.7 95.4 95.4 0 0 0-27.1-14.8c-16.6-6-33.9-5.8-51.4-6H530L500 236h-2.5a8676 8676 0 0 0-42.5-.1c-15.8 0-31.4 0-47.2.5Zm-59.5 42.3a24.7 24.7 0 0 0-5.3 9.3h3l1 2 5-2v-2h2v-2l1.8-.8c2.2-1.2 4-2.5 6-4 14.3-9.6 32-10.5 48.6-10.5a4947.5 4947.5 0 0 0 18 0h11a13095.2 13095.2 0 0 1 75.5 0 3935.3 3935.3 0 0 0 31.2 0c8.3-.1 16.3.3 24.5 1.6l2.1.3a63.6 63.6 0 0 1 39.4 25.8l4.9 7.6 2-1a61.2 61.2 0 0 0-28-38c-16.3-9-33.2-10.2-51.4-10.1a7903.1 7903.1 0 0 1-48.6 0 11271.1 11271.1 0 0 1-56-.1c-47.4-.4-47.4-.4-86.7 24ZM362 286l1 8c3.4 1.2 4.8 1.1 8.1-.4l6.8-3.8c9.7-4.8 21.2-4 31.7-4a4334.3 4334.3 0 0 0 17 0h13a12113.6 12113.6 0 0 1 81.7 0 2861 2861 0 0 1 16.6 0 200.8 200.8 0 0 1 25.3 1.3A61.8 61.8 0 0 1 601 308l4 4c-4-13-13-24-24.9-30.4a93.4 93.4 0 0 0-44.8-8.7 8276 8276 0 0 1-49.7 0 11870.4 11870.4 0 0 1-73.4-.2c-18.7 0-34.7 2.4-50.2 13.3Zm26 11v1c7 1 13.9 1.1 21 1.1h3.4a5074.7 5074.7 0 0 0 23.6.1h2a8675 8675 0 0 0 67.6.3h3.2c12.7.1 25.5 3.9 34.9 12.6a36.6 36.6 0 0 1 10.6 27.3c-.7 8-2.6 15.8-4.3 23.6 20 1.4 20 1.4 37.7-6.4 4.9-5 6.4-12 6.7-18.9-.4-12-4.8-21.4-13.4-29.6-16.6-14-39.3-16.2-60.2-16.3h-3.5a4981.9 4981.9 0 0 0-56.2 0 4640.3 4640.3 0 0 0-27-.1c-16-.1-30.8 0-46.1 5.3Zm260 5v1.7a68.6 68.6 0 0 1-14 46.3l-2.3 3.2a54.9 54.9 0 0 1-36.3 16h-2.7l-3 .1a1608289271.3 1608289271.3 0 0 0-18.7.3 4983.2 4983.2 0 0 1-106.3.4h-3.9a109244.2 109244.2 0 0 0-113 0c-35.7-.5-35.7-.5-69.8 9l-4.9 1.9A78.8 78.8 0 0 0 251 394l-2 1.3a11 11 0 0 0-4 4.7 79 79 0 0 0 0 14l2-2 1.3-1.3 3.6-3.8c18.2-19 46-28.3 72-29.2l20.8-.1a7823.7 7823.7 0 0 0 49.7 0l40.2-.1h2.4a672891.6 672891.6 0 0 1 36.4 0h2.4a42465 42465 0 0 0 91.3-.2c24.3 0 46.3-.2 67-14.5a60.7 60.7 0 0 0 18.1-43.9A70 70 0 0 0 650 302h-2Zm-402 81v9l1-2 4-2c1.7-1 3.4-2.2 5-3.3 9.2-5.8 18.7-9.5 29-12.7v-1c-11.7-.8-30.2 3.2-39 12Zm411 94-2 3h-4c-1.1 3.3-1 6.3-1 9.7.6 19.4-6 36.2-19.2 50.5-14 14.4-33.3 21-52.7 24.5l-2 .4c-16 2.5-32.4 2-48.5 2a6602 6602 0 0 0-47.7.1 7182.8 7182.8 0 0 1-27.5 0c-34.2.1-69-.6-95.6-25.2a79 79 0 0 1-15.4-24.8c-1.1-3.3-1.1-3.3-3.6-4.6l-1.8-.6-2 2a55 55 0 0 0 18 35c35.6 30.9 83.9 30.2 128.4 30.2h3.5c84 1.6 84 1.6 156.3-34.3A76.9 76.9 0 0 0 663 492a27.6 27.6 0 0 0-5-15h-1Zm-29 10c-2.3 3.4-2.4 5.3-2.8 9.4-2 14.4-7.8 27-19.4 36-14.8 10-32 12-49.5 12.1a2964 2964 0 0 0-16.4.2h-10l-31.3.3h-10.1a7172.2 7172.2 0 0 1-35 .2c-59.6.3-59.6.3-80.5-19.2a61.4 61.4 0 0 1-10-16l-3 1c5 14.7 15 23.4 28.7 30.4 48.1 21.8 157.6 19.3 206.8 2a57.8 57.8 0 0 0 31.8-29.3c3-8 5.5-16.7 2.7-25.1l-1-2h-1Zm-76-15-.4 2.3A44.2 44.2 0 0 1 536 501l-3 1v-2.1c-1.7-5-6-7.9-10.6-10.2a67.5 67.5 0 0 0-18.7-1.9h-3.2a3820.6 3820.6 0 0 0-32.1 0 5245.9 5245.9 0 0 1-53.4-.2 34 34 0 0 0-21.4 5.8 20.6 20.6 0 0 0-6.6 15.2c0 5.7 3.2 8.8 7.1 12.6 11.2 9.4 26.4 8 40.3 8h3.8a4173 4173 0 0 0 37 0 7393.4 7393.4 0 0 1 67.8.2c15.6 0 28.3-3.2 39.7-13.9 6.1-6.7 8.8-15 9.6-24-.5-5.7-2-9.9-5.6-14.4-9-7.1-23.8-5.3-34.7-5.1Zm62 24-.4 1.6A53.8 53.8 0 0 1 582 536c4.6 1.5 7.6-.5 11.9-2.4A47.2 47.2 0 0 0 618 506c.6-3.3 1-6.6 1-10l-1 3-2-3h-2Zm25-18-2 5 1 1c.3 20-5.7 35.6-19.2 50.5-23.8 23.3-61.6 20.8-92.2 20.8a18653.2 18653.2 0 0 0-70.3 0c-66.8 0-66.8 0-90.6-23.6-5.8-6.1-14.7-15.7-14.7-24.7l-5 1a60.8 60.8 0 0 0 25.9 40.1c17.8 10.7 37.4 13.6 57.9 14.5h3a768 768 0 0 0 37.2.5 8487.2 8487.2 0 0 0 28.4 0C563 566 563 566 621 542l2-1.4c10.3-8 18.3-21 20.7-34 1-9.4 1.3-18.8-2.7-27.6l-2-1Zm73 121-4.4 5.3-2.5 3c-2.2 2.6-2.2 2.6-3.1 5.7l-4 2a649 649 0 0 0-4 5c-4 4.1-8.5 7.5-13 11l-2.5 2c-45.7 35.5-108.5 40.5-164 40.4h-13a7946.8 7946.8 0 0 1-68.3 0h-12.8c-23.1 0-46.4 0-68.8-6.2l-3-.7a170.8 170.8 0 0 1-59-28.6c-2.5-2-2.5-2-5.6-2.9 1.2 2.7 1.2 2.7 3 5l-3 2c3.3 2.3 3.3 2.3 7 3l1 3c14.5 15.9 35.7 26 56 32l2.3.7 7.3 2 2.1.7a159 159 0 0 0 41 3.9 5487.4 5487.4 0 0 1 18.7 0h11.5a14422.4 14422.4 0 0 0 79.2 0h14.4c19.3.1 38.4.2 57.5-3.3l2-.4a215.5 215.5 0 0 0 14.4-3c30-7 62.4-18.4 85.6-39.6l1-2 4-1v-2l1.7-.7c2.9-1.6 4.3-3.7 6.3-6.3l2-1 1-2 3.2-2.6c4-3.4 6.8-7.2 9.8-11.4l4.9-6.3c1.3-1.6 1.3-1.6 1.1-3.7l-7-3Zm-27 48-2 4 4-2v-2h-2Zm-8 6-5 4 3 1 3-3-1-2Zm-8 5-4 4 2 2 2-1v-2l2-1-2-2Zm-9 5v2l-2.5.2c-3 .7-4.6 1.2-7.1 2.6a139 139 0 0 1-14.3 6.1l-2.8 1A198.6 198.6 0 0 1 598 685v1c7.6.4 14.2-1 21.6-2.8l3.2-.8A127 127 0 0 0 640 677l2.5-1a79.6 79.6 0 0 0 19.5-10v-3h-2Z" fill="#2A271A"/><path d="M418 197.7h11.4a14472.3 14472.3 0 0 1 79.3 0h14.4c50.4-.2 95.8 5.2 133.9 41.3l2.5 2.3c18.7 17.9 30.8 44 31.9 70a102.5 102.5 0 0 1-15 60.6A88.4 88.4 0 0 1 624 411c-16 4.3-31.9 4.2-48.2 4.2a16748.9 16748.9 0 0 0-78.2.1 37940.4 37940.4 0 0 1-110.3.3c-34.5 0-71.5 5.8-98.3 29.4l-1.5 1.3A141.9 141.9 0 0 0 262 475c-1.4-4.3-.4-6.6 1.5-10.5 2.9-4.8 6.7-8.6 10.5-12.5l2.8-3a128 128 0 0 1 65.1-34.8l2.6-.6c16.2-3.5 32.2-3.9 48.6-3.9a8969.7 8969.7 0 0 0 44.7 0 32733.8 32733.8 0 0 1 65.9-.2h2a19403.5 19403.5 0 0 0 78.4 0c29.5 0 55.3-5.7 77.3-26.8A95.3 95.3 0 0 0 686 316a99.2 99.2 0 0 0-28.5-68.5L655 245v-2l-1.8-.8c-2.4-1.3-4-2.8-6-4.7-28.8-25.9-66.4-33.6-104-33.7a12704.7 12704.7 0 0 1-57 0 14360.6 14360.6 0 0 1-73-.1c-49.2-.2-100 4.3-137 40.7a77.5 77.5 0 0 0-11.7 14.8c-1.8 2.1-2.8 2.5-5.5 2.8-1-3-1-3-.3-5 3.2-5.6 6.6-9.7 11.3-14l7.2-7.3a128 128 0 0 1 47.2-27c7.8-2.9 15.7-4.7 23.8-6.4l3-.6c22-4.3 44.3-4 66.7-4Z" fill="#2A2619"/><path d="M730 746a3907 3907 0 0 1 34.5-.2c11.5 0 20.5 2.9 30.3 8.9a32.7 32.7 0 0 1 9.4 25.2c-.1 9.9-3 14.6-9.7 21.8-3.6 3.3-8.4 7.3-13.5 7.3 2.6 4.7 5.4 9.1 8.8 13.4l1.3 1.7c3.3 4.2 6.8 8.3 10.5 12.2 1.4 1.7 1.4 1.7 1.4 3.7l1.7.7c2.8 1.6 4.7 3.5 7 5.8l2.3 2.4 2 2.1 2 2c-2.8 2.8-10.4 1.6-14 1.8l-3.7.2c-8.9.2-8.9.2-12.7-3.1-2-2.9-3.8-5.8-5.6-8.9l-4-5.5c-20.4-28.9-20.4-28.9-24-42.5h3.1c14-.5 14-.5 25.5-7.6 2.7-4.6 2.9-8.1 2.4-13.4-1.6-4.5-4.3-6-8.5-8.1-4.7-1.7-9.6-1.6-14.5-1.6l-3.2-.1-7.8-.2a12864.5 12864.5 0 0 0 .7 70v2c.1 6.6 1.3 12 4.3 18h-26l3-10a100.6 100.6 0 0 0 .4-12 1039.4 1039.4 0 0 0 0-26.9 2416.8 2416.8 0 0 1 0-34.1 924.3 924.3 0 0 0 0-10.7c0-4.8-1-8-3.4-12.3v-2Z" fill="#2A2719"/><path d="M617 746h77c0 11.3 0 11.3-.5 15.6 0 .9-.2 1.7-.3 2.6l-.2 1.8-2.3-.5c-5-.7-10-.7-15-.8h-3.3a5631.6 5631.6 0 0 0-17.3-.4L638 764v27a1568.8 1568.8 0 0 0 21.8-.5h3.5c4.7-.5 4.7-.5 12.7-3.5v24l-10-2a123.1 123.1 0 0 0-10.5-.5l-4.1-.1-13.4-.4v29a6370.6 6370.6 0 0 0 36-.6h3c6.8-.2 12.3-.6 18-4.4v10.5l.1 2.3v2c-.1 2.2-.1 2.2-1.1 7.2h-76c1-5 1-5 2-8l.1-5.4v-7.1a1052527113.3 1052527113.3 0 0 1-.1-18.6 4467.4 4467.4 0 0 0-.7-61c-.2-3.3-.2-3.3-2.3-7.9Z" fill="#2C291B"/><path d="M696 437c3.1.3 4.7.7 7 2.9 15.2 19.5 19.2 43 16.5 67.2A142.8 142.8 0 0 1 712 538l-1 3a124.3 124.3 0 0 1-25 39l-2.2 2.6c-32 37.2-82.4 49.4-129.2 53-8.2.7-16.5 1-24.8 1.5l-2.9.1a1483.3 1483.3 0 0 1-86 1c-103.7.2-103.7.2-143.5-38.7C280 581.6 280 581.6 280 575l-2 1-1 3c-3.6 1.7-3.6 1.7-7 3l-.4-2c-.4-2-.4-2-1.6-3l-2-6 1-1v-5h2v-2c2.3-.3 2.3-.3 5 0 1.7 2.4 1.7 2.4 3 5l2 1v-2h2l-.3-2.1-.3-2.8-.4-2.7V557l2-2-2-1c.4-5.4 2-7.5 6-11l.4 1.7c.7 2.5 1.6 5 2.6 7.4 1 2.6 2.1 5.2 3 7.9h2v-2h2c-.5-3.5-.9-6.7-2-10l1-3h2l-2-5 3-.4 3-.6 1-2c1.3 4.3 2.3 8.5 3 13l-2.5 1.3-2.5 1.7v3l-2 2c12.5 26.6 32.6 41.7 59.8 52 6.2 2.1 12.6 3.8 19 5.2 2.4.5 2.4.5 6.2 1.8 1.2 2 1.2 2 2 4l-2 2c-25.5-.4-55.3-16.7-73-34-5.5-5.9-9.9-12-13.6-19.1-1.3-2-1.3-2-3.4-2.7-2.6-.2-3.8.6-6 1.8h-3a109 109 0 0 0 66 55c22.8 6.4 44.7 7.2 68.2 7.2a72933 72933 0 0 1 40.2 0c38.7.1 38.7.1 77.4-1l2.5-.2c22-1.1 44.4-3.2 65.7-9l2.4-.6c38-10.4 70.5-31.8 90.6-66.4 15-26.4 21.1-58.4 13-88-2.8-8.7-7-17.3-13.7-23.6L695 441c.3-2.2.3-2.2 1-4Z" fill="#4F4C40"/><path d="M272 746h76c0 15 0 15-1 20l-2.3-.5c-5-.7-10-.7-15-.8h-3.3a5631.6 5631.6 0 0 0-17.3-.4L292 764v27l13.3-.3h4.1l3.4-.2h3.4c5-.6 10-2.2 14.8-3.5v24l-9-2a128 128 0 0 0-11-.5l-4.6-.1-14.4-.4v29a6149.5 6149.5 0 0 0 38-.6 66 66 0 0 0 20-3.4v9.9c.1 4-.2 7.2-1 11.1h-77c1-4 1-4 2-7l.1-8.9v-2.7a3202.3 3202.3 0 0 0 0-28.4 5432.3 5432.3 0 0 1 .2-47.2v-4.4c-.4-3.3-1.4-6.3-2.3-9.4Z" fill="#2A271A"/><path d="M494 746h24l-2 10-.4 7.3-.1 3.9-.1 4a3505 3505 0 0 1-.4 13.8h2l.7-1.6c1.8-3.3 4.3-6 6.9-9l3.2-3.7 1.7-2c6.4-7.2 6.4-7.2 12-15.2 2.8-4.3 4.8-7 9.9-8.3a105.4 105.4 0 0 1 15.7.3l9.9.5c-6.2 7.5-6.2 7.5-9.8 10l-2 1.5-4.3 2.9c-7.5 5.3-12.8 12.5-18.4 19.7l-6.3 7.9-3.2 4c1.6 3.9 4.2 6.8 7 10l1.4 1.7c4.3 5 8.7 9.8 13.1 14.6l6 6.6c7.5 8.8 15.4 17.2 23.7 25.2 1.8 1.9 1.8 1.9 1.8 3.9-21.8 2.5-21.8 2.5-28.4-1.4-3.9-3.7-6.6-8-9.4-12.7a34.5 34.5 0 0 0-6-6.7c-4-3.9-7.4-8-11-12.4-2.9-3.6-6-7-9.2-10.5l-6-7.3c-.1 12.1-.2 24.2.3 36.3v2.5c.3 4.4.7 7 3.7 10.2v2h-26c1-4 1-4 2-6.7 1.2-4.1 1.3-7.8 1.3-12.1v-2.6a1508.6 1508.6 0 0 0 0-27 2936.6 2936.6 0 0 1 .1-45v-4.3c-.6-3.5-2.1-6.9-3.4-10.3Z" fill="#2A2719"/><path d="M448.5 751.6c5.2 3.6 5.2 3.6 6.5 7.4a91.7 91.7 0 0 1-4 7.2l-1.1 2-2.9 4.8a35.7 35.7 0 0 1-9.3-5 25 25 0 0 0-19.7-4.5c-4 1-6.3 2.6-8.9 5.9-1.3 2.5-1.3 2.5-1.1 5.1 2.1 5.4 6.4 8 11.4 10.4l8.1 3.2A52.4 52.4 0 0 1 445 798l2.7 2.3c5.4 6.4 8.6 14 8.5 22.4-.6 6.9-3 12.8-7.2 18.3l-1.6 2.5a41.2 41.2 0 0 1-29.7 12c-14-.4-26-5.4-35.7-15.5a491 491 0 0 1 3.8-6.5l1-1.9c1-1.8 1-1.8 3.2-4.6 4.3 0 4.8.3 8 2.8 7.3 5 14.7 8.3 23.6 6.8 5.4-1.4 9.8-3 12.9-8 1.6-4 2.1-6.3 1.5-10.6-2.7-5-5.2-7-10.3-9.4L422 807l-2-1c-24.6-11.4-24.6-11.4-30-24.9a28 28 0 0 1 2-20 31.2 31.2 0 0 1 18.6-15.3 50.5 50.5 0 0 1 38 5.9Z" fill="#2B291A"/><path d="M707 430c5.1.7 6.9 2.4 10.1 6.3 17 24.1 19 53.3 14.9 81.7-7 40.1-29 76.3-62.1 100a209.5 209.5 0 0 1-85.8 33.8l-3.5.6c-22.9 3.7-46 4-69.2 3.9h-9.9a10648 10648 0 0 1-68 0h-12.2c-49.6.2-99.2-6.4-136-42.8A646 646 0 0 1 273 601l-2 2c-2.5.8-4.3 1-7 1-8-14.5-8-14.5-6.5-21.3l.5-1.7 3 2h3v2l1.3 1.3c2 2 3.3 4.2 4.7 6.7 2.2-.5 4-1 6-2l1 1.6c18.2 28.5 48.6 44.7 80.8 52a314 314 0 0 0 66.1 4.8h12.5a7534.7 7534.7 0 0 0 45 0 10795.4 10795.4 0 0 0 33.2-.1c22.9 0 45.7-.3 68.3-4.1l3-.5A194.2 194.2 0 0 0 684 598l2.2-1.9c26.6-24.6 38.7-63.9 41-99 .5-21.3-4.6-44.3-19.1-60.4-2.1-2.7-2.1-2.7-2-5l.9-1.7Z" fill="#3E3B2D"/><path d="m734 541 3 2c2.2-.3 2.2-.3 4-1l-1.4 7.3-.4 2.1c-.6 3.4-1.2 5.7-3.2 8.6l.5 1.9c.7 2.9-.3 4.5-1.5 7.1v1l-2 7h-2l1 3c-2.4 8-6.5 15-11 22-6.8-.9-6.8-.9-9-2l-1.6 2c-3.6 4.6-7.2 9-11.4 13l-2.2 2.8-1.8 2.2h-2l-1 3c-1.7 1.6-3.5 3-5.4 4.5-3.7 3-3.7 3-7.2 6.2-1.7 1.6-3.3 2.3-5.4 3.3l-4.6 2.9c-40.7 25.2-88.8 34.2-136.2 34.3a9658.6 9658.6 0 0 0-49.4 0 10708.7 10708.7 0 0 0-63 .1c-23.2.1-46.6 0-69.2-6l-3-.8C326 661.4 305.5 651 287 637l-3-2 4 4-1 2c-6.6-.7-9.8-5.3-14-10l-4-6a458 458 0 0 0-5.5-6.9c-1.5-2-2-3.6-2.5-6.1h-2l-1-7 3 2v2h2l3 5 2 1 1-6h-2l1-2 5 2-3 2 3 1 3 5 1.7 1.7 1.3 1.3v2l1.8.8c2.4 1.3 3.6 2.6 5.3 4.6 23.8 24 60.4 34.6 92.9 38.6l2 .2c7.8 1 15.7 1 23.6 1a9813.8 9813.8 0 0 1 50.3 0 11051 11051 0 0 1 64 .1c62.3.3 127.5-9 174.1-54.3 8.6-8.5 15.5-17.8 22-28l1.2-2c8.1-13 13.8-27.2 17.8-42Z" fill="#201D12"/><path d="M728 338h2c-1.6 33.5-23.1 66.3-46.8 88.7-27.4 23.7-62.3 27.6-97.2 27.6a7926.4 7926.4 0 0 0-41.8 0 35099 35099 0 0 1-137.3.3c-15.6 0-31.2.8-46 6l-2.3.9a86.3 86.3 0 0 0-41.6 29.3l-1 2.2 1 2-4-1-2 6 2 2c-.2 4.3-3.2 7-6 10h-2l-.8 1.8c-2.2 4-5.6 6.4-9.2 9.2a76 76 0 0 1 6-12.1l1-1.9 5-8-4-2c2.7-5.1 5.7-9.2 9.6-13.4l1.6-1.7c15.1-15.8 32.3-26 53.4-31.7l2.2-.6c14.4-3.6 28.4-3.9 43-3.9a8162.9 8162.9 0 0 0 42.8 0 36487.2 36487.2 0 0 1 140-.3c35 0 65.7-7.7 91.5-32.4 16.5-16.5 26.8-38.6 33.7-60.5 1.5-4.3 3.2-8.4 5.2-12.5h2v-4Z" fill="#353124"/><path d="M456 215a16106.3 16106.3 0 0 1 89.4-.3c17.3-.1 34.3.3 50.7 6.5l2.5.9c28.3 10.6 52.2 29.2 65.4 56.8a90.4 90.4 0 0 1 4 68.1 84.8 84.8 0 0 1-16.8 27 66 66 0 0 1-27.8 17.3l-2 .7a164.2 164.2 0 0 1-51.6 5.3 7230 7230 0 0 0-46.2 0 21053 21053 0 0 1-86.9-.1L344 397c.8-2 .8-2 2-4 5.1-1.5 10.6-1.1 16-1.1h13a18222.2 18222.2 0 0 0 47-.1h36.7a28875 28875 0 0 1 118-.3c24 .1 51-2.2 69.4-19.5a80.1 80.1 0 0 0 20.9-58 93.8 93.8 0 0 0-30.7-63.5c-25.6-21.8-56.4-30-89.3-31.5v-2h-7v1h-28v-1l-56-1v-1Z" fill="#262214"/><path d="M683 449c2.3-.3 2.3-.3 5 0a51 51 0 0 1 15 31 111.7 111.7 0 0 1-34 92l-2 2.2c-32.3 35.2-87.7 41.5-132.5 43.7-9 .4-18.1.3-27.2.3h-3.5a10853 10853 0 0 1-59.2.1c-34 .2-68.3-3.8-98.6-20.3l3-5c4.2 1.3 8 3 12 4.8 15.8 7 33 10.3 50 12.2.8 0 1.5.2 2.3.3 10.7 1 21.5.9 32.2.9a53642.3 53642.3 0 0 1 34.7 0c74 1.4 74 1.4 144.8-17.2l2-.9a134 134 0 0 0 41.4-29.4c17-17.6 27.6-43.2 28.6-67.7l.2-2.3a53.5 53.5 0 0 0-12-38.1C683 453 683 453 683 449Z" fill="#3F3C2F"/><path d="M661 505c3 0 3 0 6 1-1.3 18.7-15.4 36.7-29 48.7-32.3 25-76.9 27.2-116 29.3l-3.2.2c-128.2 7-128.2 7-170.1-30.6-5-4.7-9.1-9.7-12.7-15.6l-1.8-3c-4.3-7.3-4.3-7.3-3.9-10.3l.7-1.7 3 1 1-3 1.4 3.1a83.2 83.2 0 0 0 47.3 43.4c31 10.9 64.2 10.7 96.7 10.7h3.5c84 1.6 84 1.6 156.3-34.2a87.5 87.5 0 0 0 20.8-39Z" fill="#353124"/><path d="M441 172a23189.5 23189.5 0 0 1 124-.4c18-.1 35.4 0 53 4.4l2.7.7A151.3 151.3 0 0 1 690 216l2.3 2.2a137.2 137.2 0 0 1 36 61.4c3.2 11 4 21.7 4 33l-.1 6.6c0 6.4-.2 12.5-1.2 18.8h-3v4h-2l-1 6h-1l.4-5 .3-2.8.8-6.8c4.5-35.8-5.1-69.5-26.5-98-26.2-33.4-62.7-51.7-104.4-57.1-9.8-1.1-19.6-1.5-29.5-1.5h-4l-10.7-.1h-11.2a23835.7 23835.7 0 0 0-95.2-.7l1-2-4-2Z" fill="#2C2A1E"/><path d="M375 184a60668.3 60668.3 0 0 1 196-.4c16.8 0 33.5 1.2 49.8 6.2l2.6.7a151.8 151.8 0 0 1 27.1 11.3c32 17.1 53.8 46.2 64.2 80.5 5.7 20 5.9 43.9-.7 63.7h-4l.4-4.6.3-2.5.8-6.2c4.1-31-2.4-61.8-20.5-87.5-1.9-2.5-4-4.8-6-7.2l-2.6-3c-19.8-22.6-45.5-35.2-74.3-42.3l-2-.4c-9.3-2.2-18.6-2.5-28-2.6h-3.8a5149 5149 0 0 0-17-.3c-60.5-.8-120.9-1-181.3-1.4v-1h88v-2h-89v-1Z" fill="#242216"/><path d="M696 437c3.1.3 4.7.7 7 2.9 15.2 19.5 19.2 43 16.5 67.2A142.8 142.8 0 0 1 712 538l-1 3a124.3 124.3 0 0 1-25 39l-2.2 2.6c-32.3 37.6-83 49.4-130.3 53.2-5.5.3-11 .3-16.5.2l3-2-2-4 1.9-.1c52-3 104.7-13.3 141.5-53.5A130 130 0 0 0 713 482a62.2 62.2 0 0 0-16.7-39.6L695 441c.3-2.2.3-2.2 1-4Z" fill="#3C392C"/><path d="M667 455c6 2 9.6 4.6 13 10 8 16.4 8.5 35.7 2.7 53a107.4 107.4 0 0 1-53.2 61.9c-22 9.6-45.3 14.2-69 17.3l-3.4.5a632.1 632.1 0 0 1-80.4 3.4H465L442 601v-1l59-1 1-2-47-1v-1h1.9c87 .5 87 .5 170.1-22l2.5-1c24.4-11.2 38.4-33.7 47.6-58 2-6.6 2.2-13.2 2.3-20.1V491a43.2 43.2 0 0 0-7.8-25.9c-1.6-2.3-1.6-2.3-3.8-4.3L666 459c.3-2.3.3-2.3 1-4Z" fill="#3E3B2F"/><path d="M397 232a35770.5 35770.5 0 0 1 133.1-.3c46.3-.2 46.3-.2 62.8 6.6l2.4.9a102.4 102.4 0 0 1 57 53.5c.8 2.6.6 3.8-.3 6.3h-3l-1-2-5 5-.8-3a80.8 80.8 0 0 0-37.4-49 106 106 0 0 0-13-5.8l-2.2-.9c-16.9-6-34.3-5.8-52-6h-8.2a6781.2 6781.2 0 0 0-52.3-.5L401 236l3-1v-2h-7v-1Z" fill="#232014"/><path d="M317 881c24.5 0 24.5 0 30.8 5.4 5.6 6.5 6.6 10.7 6.5 19.3-.5 6-2.7 10.2-7.2 14.2-4.5 3-8 4.4-13.4 4.3h-6L317 924v-43Z" fill="#2A271A"/><path d="M320 376.8h32.1a8593 8593 0 0 1 43.5 0 39986 39986 0 0 1 82.3 0h2.5a423513.4 423513.4 0 0 0 116.6.2v1h-5v2l4 1c-2.4 1.2-3.9 1.1-6.6 1.1H560a17063 17063 0 0 1-85 0h-42.9A840894 840894 0 0 0 316 382c0-3.5.4-4.8 4-5.2Z" fill="#262011"/><path d="M590 881c12 0 12 0 15.1 2a1656013903.2 1656013903.2 0 0 1 13.9 18v-20h13v43c-11 0-11 0-13.7-2l-2-2.8-2-3-2.3-3.2-5-6.2-4-4.8-1 22h-12v-43Z" fill="#2E2C1F"/><path d="M707 430c5.1.7 6.9 2.4 10.1 6.3 17 24.1 19 53.3 14.9 81.7a152.6 152.6 0 0 1-64 101l-2-1c-.3-2.2-.3-2.2 0-5 2-2.1 2-2.1 4.9-4.3a146.6 146.6 0 0 0 55-98.5c3-24 .1-50.5-14.9-70.2l-3-3.3c-2-2.7-2-2.7-1.8-5l.8-1.7Z" fill="#3E3C2E"/><path d="m258 605 3 2v2h2l3 5 2 1 1-6h-2l1-2 5 2-3 2 3 1 3 5 1.7 1.7 1.3 1.3v2l1.8.8c2.4 1.3 3.6 2.6 5.3 4.6 23.8 24 60.4 34.6 92.9 38.6l2 .2a209.6 209.6 0 0 0 27.5 1l12 .1h12.6a29196.5 29196.5 0 0 0 106.9.7v1l-144 1v2c-26.1 3.9-54.7-4.3-78-16l-2-1a181 181 0 0 1-29-18l-3-2 4 4-1 2c-6.6-.7-9.8-5.3-14-10l-4-6a458 458 0 0 0-5.5-6.9c-1.5-2-2-3.6-2.5-6.1h-2l-1-7Z" fill="#39382C"/><path d="m702 354 3 1c-4.5 24-23.5 47-43 61-21.6 14.1-43.8 17.5-69.2 17.3a4966.1 4966.1 0 0 0-22.5 0l-16.7-.2-32.6-.1v-3l-123-1v-1h3.4a47392 47392 0 0 0 196.5-.4c17.3 0 33.3-1.9 49.1-9.6l2.8-1.4c26.1-13.4 39.6-37.3 52.2-62.6Z" fill="#3A3226"/><path d="M556.7 881.9c2.2 1.1 2.2 1.1 5.3 3.1-.8 3.9-2.4 6-5 9l-2-1a18 18 0 0 0-13.9.3c-2.3 1.9-3.2 2.8-4.1 5.7-.5 5-.2 8 3 12 3.2 2 5.6 2.2 9.3 2.1h2.7l2-.1-1-4-6-1v-9h16v21c-7.6 3.8-13.7 6.5-22 4.5a22.9 22.9 0 0 1-14.4-11.7 25.4 25.4 0 0 1 0-19.5c5.7-11.6 18-15.4 30.1-11.4Z" fill="#2C291B"/><path d="M380 881h30c0 7 0 7-1 10h-18v7h18v8c-1 1-1 1-4.8 1.1H397l-6-.1 1 7H402.7l2.3.1h2.1c2.1 0 2.1 0 4.9-1.1l-2 11h-30v-43Z" fill="#323022"/><path d="M301 537c2.8 4.2 3.2 8 4 13l-2.5 1.3-2.5 1.7v3l-2 2c12.5 26.6 32.6 41.7 59.8 52 6.2 2.1 12.6 3.8 19 5.2 2.4.5 2.4.5 6.2 1.8 1.2 2 1.2 2 2 4l-2 2c-25.5-.4-55.3-16.7-73-34-5.5-5.9-9.9-12-13.6-19.1-1.3-2-1.3-2-3.4-2.7-2-.4-2-.4-4 .8-2 1-2 1-4 .8-2-.8-2-.8-3-2.8l-.8-2.4-.8-2.5c-.5-2.7.4-3.7 1.6-6.1l-2-1c.4-5.4 2-7.5 6-11l.4 1.7c.7 2.5 1.6 5 2.6 7.4 1 2.6 2.1 5.2 3 7.9h2v-2h2c-.5-3.5-.9-6.7-2-10l1-3h2l-2-5 6-1v-2Z" fill="#39372A"/><path d="m258 581 3 2h3v2l1.3 1.3c2 2 3.3 4.2 4.7 6.7 2.2-.5 4-1 6-2l1 1.6c18.3 28.7 48.6 44.3 80.9 52 10.8 2.4 22 3.3 33.1 4.4l-3 1v5a151 151 0 0 1-84-26l-3-2.2c-8.3-6-15.5-13-22.6-20.3L273 601l-2 2c-2.5.8-4.3 1-7 1-8-14.5-8-14.5-6.5-21.3l.5-1.7Z" fill="#3D3D30"/><path d="M384.8 410h4.5c18.6 0 37.3.2 56 .5l14.5.1 28.2.4c-1.6 1.9-2.5 2.9-5 3.4h-7.7a2588925336.2 2588925336.2 0 0 1-42.2.1c-77.4-1.8-77.4-1.8-145.1 31.5l-2.5 2.1c-9.2 8-16.8 16.8-23.5 26.9-1.4-4.3-.4-6.6 1.5-10.5 2.9-4.8 6.7-8.6 10.5-12.5l2.8-3c20.4-21.5 47.7-31.5 76.2-37l2-.4c10-1.8 19.8-1.7 29.8-1.7Z" fill="#2A271B"/><path d="M429.9 249.9a8532.7 8532.7 0 0 0 50.5 0 12248 12248 0 0 0 74.5-.2c8.4 0 16.9 0 25.1 2.3l2 2-1.5 1.4c-1.7 1.5-1.7 1.5-1.5 3.6-4.2-.4-8.3-1-12.5-1.5a207.1 207.1 0 0 0-32.5-1.8l-12-.1h-12.4a13989 13989 0 0 0-50.4-.3L404 255c.8-2 .8-2 2-4 7.8-1.6 16-1.1 23.9-1.1Z" fill="#232012"/><path d="m637 474.3 2 .7 1 3c-1.4 2.7-1.4 2.7-3 5l2 1c-1 19.1-4.2 33-17 48l-1.7 2c-12.4 13.4-32.5 20-50.3 21-10 .3-20-.3-30-1v-2l-16-1v-1h3.3c48 .4 48 .4 89.4-21.5a48.6 48.6 0 0 0 13.5-32.6c-.2-4.3-.2-4.3-2.2-7.9l-2-1v-2.4c.2-2.6.2-2.6-1-4.6l2.9-1.4c3.1-1.4 3.1-1.4 5.1-3.6 2-1 2-1 4-.8Z" fill="#373526"/><path d="M667 455c6 2 9.6 4.6 13 10 8 16.4 8.5 35.7 2.7 53-9.2 25.6-25.7 46-49 60-3.1 1.2-4.6 1-7.7 0 .2-2.4.2-2.4 1-5 1.8-1.2 1.8-1.2 4.3-2.2 23.6-10.8 37-33.3 45.8-56.7 2-6.7 2.2-13.3 2.3-20.2V491a43.2 43.2 0 0 0-7.8-25.9c-1.6-2.3-1.6-2.3-3.8-4.3L666 459c.3-2.3.3-2.3 1-4Z" fill="#3B3A2B"/><path d="M680.6 882.4c2.4 1.6 2.4 1.6 4.4 3.6 0 1.9 0 1.9-1 4-2.6 2.3-2.6 2.3-5 4l-2-2c-3.8-.8-6.3-1.2-10 0l1 3c3 1.3 3 1.3 6.8 2.3 5.7 1.9 9.2 3.3 12.2 8.7 1.3 3.9 1.1 5.7-.1 9.6a19 19 0 0 1-9.5 8.7c-5.7 1.2-11.6 1.4-16.7-1.7a50 50 0 0 1-4.7-4.6 24 24 0 0 1 6-8l1.6 1.4c3.1 2 5.7 2.3 9.4 2.6l3-1v-4l-2.9-.8c-12.5-4.1-12.5-4.1-16.2-9.4a12.7 12.7 0 0 1-.9-8.8c1.8-3.5 3.4-5.5 6.6-7.9 6-2 12-2 18 .3Z" fill="#2E2B1E"/><path d="M455 881c3 1.3 5.5 3 8 5-1.4 3-2.9 5.5-5 8h-2v-2c-5-1-5-1-10 0l1 3c2.9 1.3 2.9 1.3 6.3 2.3 9 3.4 9 3.4 11.7 8.7 1 5.2.7 8.8-2 13.4a20.5 20.5 0 0 1-16.7 5.5c-4-.6-7.2-1-10.3-3.9-1.3-2.7-1.3-2.7-2-5h2l.8-2c1.2-2 1.2-2 4.2-3l3.3 1.5c4 1.6 5.7 1.6 9.7.5v-4l-2.4-.7c-6.3-2-11-3.6-15.6-8.3-1.7-3.5-1.4-7.2-1-11 3.6-8.7 11.6-9.2 20-8Z" fill="#2D2A1D"/><path d="m734 541 3 2c2.2-.3 2.2-.3 4-1l-1.4 7.3-.4 2.1c-.6 3.4-1.2 5.7-3.2 8.6l.5 1.9c.7 2.9-.3 4.5-1.5 7.1v1l-2 7h-2l1 3c-2.4 8-6.5 15-11 22-6.8-.9-6.8-.9-9-2l-1.6 2c-3.6 4.6-7.2 9-11.4 13l-2.2 2.8-1.8 2.2h-2l-1 3c-2.6 1.7-2.6 1.7-5 3l-3-3 3.8-4.3 2.5-2.7 5.4-5.8A160 160 0 0 0 715 585l1.2-2c8.1-13 13.8-27.2 17.8-42Z" fill="#302E1F"/><path d="m684 621 2 1v6c-1.8 1.6-1.8 1.6-4 3.1l-4 2.9v2l-1.6.3c-3.3 1-6 2.8-8.8 4.6A217 217 0 0 1 554 673v-1h7v-3l-9-1v-1l2.3-.2c43.8-3.5 97.1-13.2 129.7-45.8Z" fill="#434133"/><path d="M698 625h4c-.6 3.4-1.8 5.4-4 8h4v2h-2v2h-2v2h-2l-.8 2c-1.2 2-1.2 2-4.2 3v2h-2v2l-5 1-1 3h-2v2c-3 1-3 1-6 1-2.3 1.2-2.3 1.2-4.6 2.8l-2.4 1.5c-2.2 1.9-2.6 2.9-3 5.7l-5-2v2c-19.4 8.8-39.3 16-60 21v1h-8v-2l-2-.4-2-.6-1-2 1.9-.4C642.3 670 642.3 670 685 638h4v-2c1.7-1.6 3.6-3 5.5-4.6l1.5-1.4v-2h3l-1-3Z" fill="#3D3B2C"/><path d="M616 212c25.8 7.7 49.4 30.9 62.1 53.8a108 108 0 0 1 13.2 52.6v3.5A74 74 0 0 1 688 344l-2-2-2 1 .2-1.8.8-9.2.4-3.6c2.2-26.4-4.2-52.2-20.6-73.2a125 125 0 0 0-7.3-7.7L655 245v-2l-1.8-.8c-2.4-1.3-4-2.8-6-4.7A144.1 144.1 0 0 0 611 215l2-1c2-.8 2-.8 3-2Z" fill="#222115"/><path d="M398 170.8a7379.6 7379.6 0 0 0 22.6 0H438a25411.9 25411.9 0 0 1 69.7.1l76.4.1v1l-138 1-1 2 134 1v1l-221 1 2-2-1-3a282 282 0 0 1 39-2.2Z" fill="#434034"/><path d="M230 354.9H262.5a17831.5 17831.5 0 0 1 86.8 0 115592 115592 0 0 0 162.6.1v2H229l-1 155h-1a99173.8 99173.8 0 0 1-.1-150v-3.4c.1-3.5.1-3.5 3-3.7Z" fill="#514F40"/><path d="m277 511 1 2h2l1-2c1.9.2 1.9.2 4 1 1.2 2.4 1.2 2.4 2 5l1 2-3.9 6-1 1.7a90 90 0 0 1-3.1 4.3h-2l-.8 2.2c-1.3 3-2.9 5.4-4.8 8.1l-2 2.7-1.4 2c-1.1-3.8-1.1-3.8 0-6-4.2.5-4.2.5-8 2a24.4 24.4 0 0 0-2.3 6.5c-1.4 5-4.2 9.5-7.3 13.6a25.2 25.2 0 0 0-3.4 6.9c-1.1-3.3-1-5.2-.6-8.7l.3-3 .3-2.3h3l-2-1a121.3 121.3 0 0 1 3.4-18.4c1-3.8 2-6.7 4.6-9.6l5 1 1-5 1 2h3v2h2l.3-1.7.5-2.2.5-2.3.7-1.8 3-1c1.7-3 1.7-3 3-6Z" fill="#2E2A1A"/><path d="M626 205a33.4 33.4 0 0 1 15 5.5c17.2 9.7 34 23.3 44 40.5l1 1.7a115.4 115.4 0 0 1 18 60.3l-1 2h-3l-.3-2.2c-5.1-35.6-18.2-66.2-47.7-88.4a179 179 0 0 0-27-15.4l1-4Z" fill="#211F14"/><path d="M643 504c2 3.8 2 3.8 2 6l3 1c-2.3 14.8-13.7 28.5-25.3 37.4A107 107 0 0 1 556 567l-2-1v-2l-18-1v-1h2c29.3-1 59-2 83-21l3.1-2.3A62.3 62.3 0 0 0 643 504Z" fill="#343325"/><path d="M422 563h134l-2 1v2l2 1c-2.5 1.3-4.2 1.1-7 1.1h-29.2a15071.5 15071.5 0 0 1-80.8.1H429.3c-2.3-.2-2.3-.2-5.3-2.2l-2-3Z" fill="#353226"/><path d="M441 172a48455.4 48455.4 0 0 1 148.5-.2h3.5c3 .2 5.2.9 8 2.2l-3 2 4 2c-5.4.1-10.6 0-16-.5-7-.5-13.9-.7-20.9-.7h-4l-10.7-.1h-11.2a23835.7 23835.7 0 0 0-95.2-.7l1-2-4-2Z" fill="#1F1C10"/><path d="M382 450v3l6 1v1l-3.3.4c-25.3 3.7-48.4 13-65.7 32.6-2 2.6-2 2.6-3 5l1 2-4-1-2 6 2 2c-.2 4.3-3.2 7-6 10h-2l-.8 1.8c-2.2 4-5.6 6.4-9.2 9.2a76 76 0 0 1 6-12.1l1-1.9 5-8-4-2c2.7-5.1 5.7-9.2 9.6-13.4l1.6-1.7c16-16.7 43-35.5 67.8-33.9Z" fill="#3A382A"/><path d="M346 393h181l-1 2c-3 .4-3 .4-6.8.6l-2.2.1a686.2 686.2 0 0 1-32.3.7 10166.4 10166.4 0 0 1-140.7.6l2-4Z" fill="#1F180A"/><path d="M335 432c-.1 1.8-.1 1.8-1 4-2.8 1.5-2.8 1.5-6.4 2.8-29.8 11.9-50.3 39-63.6 67.2-2.6 6.2-4.9 12.6-7 19l-3-1-1 2h-2l.6-3.3c.7-3.6.7-3.6-.6-6.7l3-1c1.4-2.2 1.4-2.2 2.6-5l1.4-3.2 1.6-3.4a166 166 0 0 1 27.2-41.6c8-9.5 34.3-34.4 48.2-29.8Z" fill="#252216"/><path d="M388 650c2.6-.4 2.6-.4 5.9-.3h3.8a10772.6 10772.6 0 0 1 20.6.2l12.5.1a8990 8990 0 0 1 50.7.5l55.5.5-2 2h-6l-2.8 1c-3.2 1-5.7 1.3-9 1.3a344743374.3 344743374.3 0 0 0-7.2 0h-26.1a9074.8 9074.8 0 0 1-70.9 0h-22.7c-2.3-.3-2.3-.3-4.3-2.3l2-3Z" fill="#1F1B10"/><path d="m702 354 3 1c-4.5 24-23.5 47-43 61-11.6 7.6-28.4 17.1-42.6 15.6l-2.4-.6v-4l3.5-.7c9.3-2 18-4.1 26.5-8.3l2.8-1.4c26.1-13.4 39.6-37.3 52.2-62.6Z" fill="#2B291A"/><path d="M387 429h161v1l-27 1v2H385l3-1-1-3Z" fill="#21180C"/><path d="M529 612h16v4c-11.4 2.3-22.7 2.3-34.3 2.2a8714 8714 0 0 0-54.1 0A402 402 0 0 1 423 617v-1l14-1-13-1v-1h105v-1Z" fill="#2C2619"/><path d="M349 523h2l.8 1.6c8.3 16.2 22.4 25.5 39.2 31.2a149 149 0 0 0 40.1 5.8h3.2l7.7.4v1l-18 1v3a92.1 92.1 0 0 1-63.6-20.9A74.1 74.1 0 0 1 346 529v-2l2-1 1-3Z" fill="#322F24"/><path d="M361 515a83 83 0 0 1 4.8 6.8c11.7 16.6 31 22.9 50.2 26.2 8.6 1.4 17.4 1.3 26 1.6a10548 10548 0 0 1 16 .4v1l-30 1v3a84.9 84.9 0 0 1-61.9-21.8c-8.1-8.3-8.1-8.3-8.1-13.2l2-1c.7-2 .7-2 1-4Z" fill="#2D2A1F"/><path d="M333 218c1.8 1.4 1.8 1.4 3 3a34 34 0 0 1-11 5.8c-21.2 8.2-40.1 22-50 43.1-1.8 4-3.4 8-5 12.1l-3-3-5 4c.6-3.3 1.4-6 3-9h2l.3-2.6c2.2-10.7 12.3-19.9 19.7-27.4l2.4-2.4A91.7 91.7 0 0 1 333 218Z" fill="#242115"/><path d="m314 584 2.8 2.5a136 136 0 0 0 60 28.7c2.4.5 2.4.5 6.2 1.8 1.2 2 1.2 2 2 4l-2 2c-25.9-.4-54.8-17-73-34l-1-2 5-1v-2Z" fill="#3C392D"/><path d="M489 881h13v43h-12l-1-43Z" fill="#28261B"/><path d="M661 505c3 0 3 0 6 1-1.3 18.7-15.4 36.8-29.1 48.8-4.7 3.6-9.6 6.5-14.8 9.3l-2.2 1.2c-3.7 2-6.5 3.2-10.9 2.7l-1-4 1.6-.8c24.6-12.4 40.6-27.6 49.4-54.2l1-4Z" fill="#393627"/><path d="M560 649v2l5 1-1 2c-2.6.5-5.2.9-7.8 1.1l-2.7.3c-14 1.2-28.3.9-42.4.8h-12.7a13649.4 13649.4 0 0 1-51.3-.1L391 656v-1h2a35361.4 35361.4 0 0 0 117.2-.7h10c3.4-.2 3.4-.2 8.8-2.3l-132-1v-1a848166.4 848166.4 0 0 1 163-1Z" fill="#5B574A"/><path d="M392 633h110v4H382v-2l10-1v-1Z" fill="#231C11"/><path d="M614 481c3 1 3 1 4 2.8a42 42 0 0 1 2 16.2h3l1-3c2.2 7.4-.7 13.3-4 20a53.4 53.4 0 0 1-33 25 47 47 0 0 1-7 1v-3l-3-2c3-1.4 5.8-2.2 9-2.7 9.1-2 18.6-7.8 24-15.3 4-6.8 7.2-13 8-21l-2-1-2-2 1 4h-2l.2-3.4.3-4.4.1-2.2c.2-3 .4-6 .4-9Z" fill="#323020"/><path d="M375 184h202v1h-91v2h90v1H376v-1h88v-2h-89v-1Z" fill="#1B1509"/><path d="M269 563c2.3-.3 2.3-.3 5 0 1.7 2.4 1.7 2.4 3 5l2 1v-2h2l1-3 1.4 3a107 107 0 0 0 24.4 33.6 10 10 0 0 1 3.2 6.4l2 1v2c-13.7-3.9-24.5-19.8-32-31.3-1-1.7-1-1.7-1-3.7l-2 1-1 3c-3.6 1.7-3.6 1.7-7 3l-.4-2c-.4-2-.4-2-1.6-3l-2-6 1-1v-5h2v-2Z" fill="#363629"/><path d="m258 605 3 2v2h2l3 5 2 1 1-6h-2l1-2 5 2-3 2 3 1 3 5 1.7 1.7 1.3 1.3v2l1.8.8c2.4 1.3 4 2.8 5.8 4.9 4.4 4.5 9.2 7.9 14.4 11.3a47.3 47.3 0 0 1-7 3c-2.5-1.4-2.5-1.4-5.2-3.4l-2.7-2-2.1-1.6 4 4-1 2c-6.6-.7-9.8-5.3-14-10l-4-6a458 458 0 0 0-5.5-6.9c-1.5-2-2-3.6-2.5-6.1h-2l-1-7Z" fill="#3D3A2E"/><path d="M376.2 409.9h4a11960.6 11960.6 0 0 1 8.8 0c18.7 0 37.5.3 56.3.6l14.5.1 28.2.4c-1.7 2-2.6 3-5.2 3.4H470.5a2024 2024 0 0 1-19.2.2 5589.3 5589.3 0 0 1-39.8.2l-43.5.2 2-2-3-2c3.3-1.1 5.7-1.1 9.2-1.1Z" fill="#201B0E"/><path d="m598.2 185 3.8.5c3 .5 3 .5 5 1.5l-1 4-2.9-.2a528.8 528.8 0 0 0-35.5-1.2l-12.5-.1-13-.2-25.1-.3v-1l-31-1v-2a228859.3 228859.3 0 0 1 72.8-.8c31.7-.4 31.7-.4 39.4.7Z" fill="#2D281D"/><path d="M698 625h4c-.6 3.4-1.8 5.4-4 8h4v2h-2v2h-2v2h-2l-.8 2c-1.2 2-1.2 2-4.2 3v2h-2v2l-5 1-1 3h-2v2c-3 1-3 1-6 1-2.3 1.2-2.3 1.2-4.6 2.8l-2.4 1.5c-2.2 1.9-2.6 2.9-3 5.7l-5-2v2h-3l1-4h-5c3.8-3 8-5.3 12.2-7.8 11.1-6.1 11.1-6.1 19.8-15.2h4v-2c1.7-1.6 3.6-3 5.5-4.6l1.5-1.4v-2h3l-1-3Z" fill="#555243"/><path d="M370 183.8h8.3a2076 2076 0 0 1 33.3.5l17.7.2 34.7.5v2l46 1v1H363v-3c3-2 3.6-2.2 7-2.2Z" fill="#3B372A"/><path d="M389 669h121v1l-90 1c1.7 1.7 3.7 1.1 6 1.2H436.6l10.3.1h10.8a20192 20192 0 0 0 91.3.7v1H389l-1-2h8v-2h-7v-1Z" fill="#322F23"/><path d="m631 446-2 1v2l2 1-6-1v2a32.5 32.5 0 0 1-13.6 2.1 597080989.2 597080989.2 0 0 0-27.6-.4l-13.4-.2-26.4-.5v-3a254.7 254.7 0 0 1 30.8-1.4l12.4-.1a5707 5707 0 0 0 18-.3c8.6 0 17.2-1.4 25.8-1.2Z" fill="#272117"/><path d="m263 522 1 2h3c.7 1.6.7 1.6 1 4a70 70 0 0 1-3.3 6.7c-2 4-4 7.8-5.3 12.1a48.6 48.6 0 0 1-8 15.3 25.2 25.2 0 0 0-3.4 6.9c-1.1-3.3-1-5.2-.6-8.7l.3-3 .3-2.3h3l-2-1a121.3 121.3 0 0 1 3.4-18.4c1-3.8 2-6.7 4.6-9.6l5 1 1-5Z" fill="#D7D3C3"/><path d="M696 437c3.1.3 4.7.7 7 2.9 14.7 18.8 16.8 37 16 60.1h-1l-1-7-1 7h-1l-.1-3.1A109 109 0 0 0 712 474l-1-3.7a56.3 56.3 0 0 0-14-27.3l-2-2c.2-2.3.2-2.3 1-4Z" fill="#3C3C2E"/><path d="m637 474.3 2 .7 1 3c-1.4 2.7-1.4 2.7-3 5l2 1c-.7 12.1-1.6 23-7 34l-1.8-.6c-2.5-.7-2.5-.7-5.2 1.6l.6-1.6c4.8-13.7 4.8-13.7 3.5-27.8-1-1.8-1-1.8-3.1-2.6v-2.4c.2-2.6.2-2.6-1-4.6l2.9-1.4c3.1-1.4 3.1-1.4 5.1-3.6 2-1 2-1 4-.8Z" fill="#302F21"/><path d="M526.8 631H540v2l8 1v1l-2.3.2-3 .2-3 .3c-2.8.2-2.8.2-5.7 1.3-3.8.4-7.5.4-11.3.6H519c-21.5.7-43 .5-64.6.5H436L400 638v-1l102-1v-2l-2-2c9-1 17.8-1.1 26.8-1Z" fill="#635E52"/><path d="M328 891c7.4 0 8.4.2 14 4 2.5 3.7 2.5 6.7 2 11a13.2 13.2 0 0 1-8 8h-8v-23Z" fill="#F7F7E7"/><path d="M432 595a1816.6 1816.6 0 0 1 72 1l-2 2 6 1v1a17794.4 17794.4 0 0 1-54 .1c-9.3 0-18.6-.3-28-1.1v-1l6-1v-2Z" fill="#1D180D"/><path d="M360 664c9.7.8 9.7.8 14.4 1.5 15.5 2.1 31.2 1.9 47 1.9h12.5a14201.4 14201.4 0 0 0 50.6.3l55.5.3v1l-144 1v2c-11 1.6-21 .8-32-1l4-4h-4v-2l-4 1v-2Z" fill="#807E71"/><path d="M314 556c2.3 3 4.2 6 6.1 9.1A73.9 73.9 0 0 0 349 592v5c-7.3.6-12-4.7-17.5-9a91.7 91.7 0 0 1-21.5-27v-2l4-1v-2Z" fill="#37372A"/><path d="m310 603 3 2.4a130 130 0 0 0 48 21.6l-1.8.9c-2.4 1.1-2.4 1.1-5.2 3.1-15.9-.3-32.9-11.5-45-21l2-1 2 1v-2l-3-1v-4Z" fill="#363529"/><path d="M322 478c2.2.3 2.2.3 4 1a31 31 0 0 1-6.1 8.8l-2.2 2.4-1.7 1.8 1 3-4-1-2 6 2 2c-.2 4.3-3.2 7-6 10h-2l-.8 1.8c-2.2 4-5.6 6.4-9.2 9.2a76 76 0 0 1 6-12.1l1-1.9 5-8-4-2c3.3-6.5 7.7-12 13-17h2v2h2l-1-3c1.3-1.6 1.3-1.6 3-3Z" fill="#3C3A2C"/><path d="M732 364h2l2 2 2-2c0 14.2-10.5 28.4-18 40l-2 2c-2-.3-2-.3-4-1l-1-2 4-6.7a133.7 133.7 0 0 0 15-32.3Z" fill="#3E3B2C"/><path d="M278 370h9v7l-3.7 1.3A122.2 122.2 0 0 0 249 396l-1-3h-3v-10h1l1 7 2.4-1.8A108.4 108.4 0 0 1 282 372l-4-2Z" fill="#313123"/><path d="m732 565 4 2-3 3h2l-2 7h-2l1 3c-2.4 8-6.5 15-11 22l-7-1c-.7-1.7-.7-1.7-1-4 1.2-2.2 1.2-2.2 3-4.6 3.7-5 6.9-10 10-15.4l1.6-2.6c1.2-2 2.2-4 3-6.2l1.4-3.2Z" fill="#DAD8C9"/><path d="M714 484h1l1 9 2-1c.5-1.9.5-1.9.6-4l.4-4h1a135 135 0 0 1-7 51l-1-2-5 1 .8-3.3c3.8-15.6 5.6-30.6 6.2-46.7Z" fill="#494739"/><path d="m556 563-2 1v2l2 1h-69v-1l-15-1v-1a23740.1 23740.1 0 0 1 30-.6c18-.3 36-.5 54-.4Z" fill="#1D1A0D"/><path d="m563 612-1 1 7 1v1a242.8 242.8 0 0 1-34 2v-1l9-1v-2h-12v1l-100-1v-1h3.4a41418 41418 0 0 0 71-.7 734 734 0 0 0 35.2-1c17.3-1 17.3-1 21.4 1.7Z" fill="#726F61"/><path d="M526 594v2l-3 2 7 1v1c-17.4 1.3-34.8 1.1-52.3 1H442v-1l59-1 1-2-47-1v-1a48776.7 48776.7 0 0 1 31-.6c27.8-.5 27.8-.5 40-.4Z" fill="#5F5C4F"/><path d="m349 643 1.7.3c13.4 2.5 26.7 5 40.3 5.7l-3 1v5c-14-.2-27.3-3-41-6l1-3 2-1-1-2Z" fill="#3C382D"/><path d="M566 592h-2v2l4 1c-4.6 1.7-9 2.6-13.8 3.1l-2.3.3c-11 1-22 .8-32.9.6 2.3-1.2 4.5-2.2 7-3v-2c5.7-1.7 11.8-1.6 17.8-2a1337.7 1337.7 0 0 0 11-.7l3.9-.2c2.7 0 4.7 0 7.3.9Z" fill="#262116"/><path d="m728 297 4 1a4874 4874 0 0 1 .1 25.1v2c0 4.5-.4 8.6-1.1 12.9h-3v4h-2l-1 6h-1l.4-5 .3-2.8.8-6.6c1-7.5.9-15.2 1-22.7l.2-6.3.1-3.8c.2-2.8.2-2.8 1.2-3.8Z" fill="#2E2B1F"/><path d="m251 522 1 2-1 2h2l1-3 2 2c-.2 2-.2 2-.8 4.3l-.6 2.4c-.7 2.8-1.6 5.5-2.6 8.3h-2l-.9 2.3a82 82 0 0 1-3.1 6.7h-2v2h-2v-6.7l-.1-3.7c0-3 .4-5.7 1.1-8.6.7-3.2 1-5.7 1-9 3 1 3 1 6 3l1-4Z" fill="#2D291C"/><path d="M592 558h-3v2l2 1v2c-30.6 6.2-30.6 6.2-37 3v-2l-18-1v-1h2c23.4-.6 23.4-.6 46.4-4.2 3.4-.8 4.5-.8 7.6.2Z" fill="#383527"/><path d="M456 215a25399.8 25399.8 0 0 1 104.4-.2h5.4c2.4.2 4 1 6.2 2.2l-7 1v1h-18v-2h-7v1h-28v-1l-56-1v-1Z" fill="#1B170C"/><path d="M682 551a12 12 0 0 1 1 5c-1.5 2.3-2.9 4-4.7 6l-1.5 1.7a416.4 416.4 0 0 1-11.2 12.2l-1.5 1.6c-1.4 1.4-1.4 1.4-4.1 3.5-2.9-.2-2.9-.2-5-1 2.8-6.1 7.7-10.8 12.5-15.4 3.4-3.3 6.2-7 9-10.8 1.8-2.2 2.7-2.8 5.5-2.8Z" fill="#343326"/><path d="M411 576a335.7 335.7 0 0 1 32.8 1.3l11.2.7v1l-9 1v2l7 1v1c-8.7.3-17.3-.2-26-1l-3-.2c-4.7-.4-9.4-1-14-1.8l1-5Z" fill="#3C362A"/><path d="M285 543a93 93 0 0 1 3.9 8.6l1 2.6 1.1 2.8 2.3 5.6 1.7 4.4-3.3.4c-2.6.4-5.1.9-7.7 1.6-2.7-4-3.7-7.2-4-12l2-2-2-1c.5-4.9 1.7-7.4 5-11Z" fill="#C6C5B6"/><path d="m401 546 12.2 1.5a232.6 232.6 0 0 0 33.8 2.2l11 .3v1l-30 1v3a96.1 96.1 0 0 1-21.3-1.8c-3.6-.6-7.2-1.3-10.7-2.2v-2h5v-3Z" fill="#39372A"/><path d="m258 581 3 2h3v2l1.3 1.3c3 3 4.7 5.5 4.7 9.7l3 1v5c-3 1.5-5.6 2-9 2-8-14.5-8-14.5-6.5-21.3l.5-1.7Z" fill="#DDDBCE"/><path d="m709 594 1 2-1 3h2c-1.2 7.4-8.6 14.2-14 19l-4 2-1 3c-2.6 1.7-2.6 1.7-5 3l-3-3 11.9-13c4.7-5.2 9.3-10.2 13.1-16Z" fill="#38372A"/><path d="M639 548c.4 2.1.4 2.1 0 5-4.3 4.8-10 8-15.6 10.9L621 565c-3.8 2-6.7 3.5-11.1 2.9l-1-4 1.6-.8 7.4-3.8 2.5-1.3c5-2.6 9.5-5.4 13.8-9 1.7-1.1 1.7-1.1 4.7-1.1Z" fill="#333122"/><path d="M281 512h4l1 2.4 2 4.6-3.9 6-1 1.7a90 90 0 0 1-3.1 4.3h-2l-.8 2.2c-1.3 3-2.9 5.4-4.8 8.1l-2 2.7-1.4 2c-.7-1.6-.7-1.6-1-4 1-2.3 2-4.5 3.3-6.7 2.4-4.7 4.5-9.2 6-14.3 1-3.1 2.4-6 3.7-9Z" fill="#EBE8D9"/><path d="M539.4 551a12723.7 12723.7 0 0 0 20.6 0v1h-20v2h16v1a6657.9 6657.9 0 0 1-42 .2h-9.8c-2.2-.2-2.2-.2-4.2-2.2 10.2-5 28.3-2.1 39.4-2Z" fill="#231F13"/><path d="M683 449c2.3-.3 2.3-.3 5 0a44.3 44.3 0 0 1 14 29l-4-2-2 2-.4-1.8c-2-7.6-5.4-16.3-11.3-21.8-1.3-1.4-1.3-1.4-1.3-5.4Z" fill="#3E3C2F"/><path d="m258 605 3 2v2h2l3.2 4.5c2.9 4.3 6 8.1 9.5 12 1.3 1.5 1.3 1.5 1.3 3.5l1.8.3c2.9 1 3.6 2.2 5.2 4.7l1 2.2c.9 2 .9 2 3 2.8l-1 2c-6.6-.7-9.8-5.3-14-10l-4-6a458 458 0 0 0-5.5-6.9c-1.5-2-2-3.6-2.5-6.1h-2l-1-7Z" fill="#BCBAAB"/><path d="m577 549-2 1v2h3v2c-12.6 2-25.4 1-38 0v-2l-16-1v-1a17894.6 17894.6 0 0 1 21.3-.6c10.6-.3 21.1-.5 31.7-.4Z" fill="#534F42"/><path d="m396 559 5.9.4 3.3.3 8.5.8c5.8.6 11.6.8 17.4 1l3.2.2 7.7.3v1l-18 1v3c-9.7.5-18.6-1-28-3l3-1-1-1-2-3Z" fill="#403B2F"/><path d="M696 437c3.2.3 4.7.7 7 3 9.3 11.9 9.3 11.9 11 18-.8 2-.8 2-2 4l-1.1 2.3-.9 1.7-.8-2.3c-3.1-7.8-6.7-15.5-13-21.3L695 441c.3-2.2.3-2.2 1-4Z" fill="#3F3E30"/><path d="m734 541 3 2c2.2-.3 2.2-.3 4-1l-1.4 7.3-.4 2.1c-.6 3.4-1.2 5.7-3.2 8.6l1 4-1 2c-2.8-.4-3.8-.8-5.7-3-1.3-2-1.3-2-2.3-4 .4-1.9.4-1.9 1.2-4.1l.8-2.5 1-2.5.8-2.6 2.2-6.3Z" fill="#605D4F"/><path d="m284 442 3 1c-1.4 4.6-4 7.2-7.4 10.4A136.4 136.4 0 0 0 262 475c-1.2-4.4-.4-6.4 1.5-10.5 5.1-8.6 13.4-15.6 20.5-22.5Z" fill="#232013"/><path d="M654 304c3.1 4.7 2.3 9.5 2.3 15v3.4A44 44 0 0 1 653 342c-2.7 1.6-2.7 1.6-5 2 .4-3.1.8-6.2 1.5-9.4 1.6-8.1 2.1-16.3 2.5-24.6h2v-6Z" fill="#242214"/><path d="M529 612h16v4c-8 1-16 1.1-24.1 1H508v-2l-7-1v-1h28v-1Z" fill="#221E12"/><path d="M614 481c3 1 3 1 4 2.8a42 42 0 0 1 2 16.2h3l1-3c1.4 6.1.3 10.2-2 16l-1-3-5 1 2-12-2-1-2-2 1 4h-2l.2-3.4.3-4.4.1-2.2c.2-3 .4-6 .4-9Z" fill="#383829"/><path d="m303 246 2 1c-1 3.6-2.7 5.9-5.2 8.6a71.2 71.2 0 0 0-9.3 13.8C289 272 289 272 287 275l-2-4-2 2c1.1-9.8 10.7-19.8 18-26l2-1Z" fill="#252215"/><path d="M269 563h5l6 12-2 1-1 3c-3.6 1.7-3.6 1.7-7 3l-.4-2c-.4-2-.4-2-1.6-3l-2-6 1-1v-5h2v-2Z" fill="#9B9A8D"/><path d="m601 528 3 1-1 2 3 2a61.8 61.8 0 0 1-26 10v-3l-3-2c3-1.4 6-2.2 9.2-2.8 4.9-1 8.5-3.3 12.6-6l2.2-1.2Z" fill="#3D3B2C"/><path d="M697 475h4c2.7 5 2.3 10 2.3 15.6v8.1c-.3 2.5-1 4.1-2.3 6.3v-4h-2l-1 3c-1.2-19.3-1.2-19.3-1-29Z" fill="#302E1F"/><path d="m592 625-1 3 5 1v1a3479 3479 0 0 1-15 2.6l-3.2.5-3 .5c-3 .4-5.8.5-8.8.4l1.9-.8c2.4-1.2 2.4-1.2 4.1-4.2h-8v-1l10.6-1.5 3-.4c4.9-.7 9.5-1.3 14.4-1.1Z" fill="#3D3A2D"/><path d="m333 218 3 3a36 36 0 0 1-11.2 6l-4 1.5-2 .8c-3.6 1.4-7.2 3-10.8 4.7v-6c16.7-7.5 16.7-7.5 25-10Z" fill="#29261A"/><path d="M528 216h20l-1 3H441v-1l87-1v-1Z" fill="#282317"/><path d="m616 677-4 2v4l-12 3v1h-8v-2l-2-.4-2-.6-1-2 12.3-3 3.5-1 3.3-.8 3.2-.8c2.6-.4 4.2-.3 6.7.6Z" fill="#434132"/><path d="M392 633h110v1h-3.9a42780.2 42780.2 0 0 0-89.5.8H400.7c-1.7 0-1.7 0-2.7 1.2a210.2 210.2 0 0 1-16 0v-1l10-1v-1Z" fill="#1C160A"/><path d="m387 429 1 3c2 1.2 2 1.2 4 2l-3.4.3c-9.7 1-19.1 2.4-28.6 4.7l1-6 10.2-2 2.9-.6 2.8-.5 2.6-.5c2.5-.4 5-.5 7.5-.4Z" fill="#2C271B"/><path d="M422 563a722 722 0 0 1 46 1v1l-2.6.2-3.3.2-3.4.3c-2.6 0-2.6 0-3.7 1.3l-6.9.1h-2a2050.8 2050.8 0 0 1-22.1-.1v-2l-2-2Z" fill="#1D180C"/><path d="M727 500h1v9h2a46 46 0 0 1-2 26h-1l-.4-2.9c-.3-3.2-.3-3.2-2.6-5.1a93.9 93.9 0 0 1 1.4-12.6l.3-2.3c.6-4 1-8 1.3-12.1Z" fill="#343024"/><path d="M382 450v3l6 1v1l-3.6.6c-11.8 1.9-11.8 1.9-23.4 4.4l-1-3c2.5-3.8 5-4.2 9.3-5.2l2-.5c3.7-1 7-1.5 10.7-1.3Z" fill="#393629"/><path d="m642 564 2 1 1 5-4.8 3.4-2.6 1.9c-5.8 3.8-5.8 3.8-9.4 3.3l-2.2-.6c.2-2.3.2-2.3 1-5 2.1-1.4 2.1-1.4 4.8-2.6 3.8-1.7 7-3.5 10.2-6.4Z" fill="#3B3B2D"/><path d="m628 516 3 1c-.6 3.9-2.5 6.4-4.8 9.6l-2 2.8c-2 2.3-3.7 4-6.2 5.6l-2-1-1 2-2-2c9.4-14.7 9.4-14.7 15-18Z" fill="#3B382A"/><path d="M261 500c2 2 2 2 2.3 5.1-.4 4.6-1.6 8.1-3.3 12.3l-.9 2.3a595 595 0 0 1-2.1 5.3l-3-1-1 2h-2l.6-3.3c.7-3.6.7-3.6-.6-6.7l3-1c1.4-2.5 2.5-5 3.7-7.6l1-2.1 2.3-5.3Z" fill="#262317"/><path d="m253 544 2 1-1 4h2v-5l2 1c.9 6.8-2.6 11.9-6.6 17.1a25.3 25.3 0 0 0-3.4 6.9c-1.1-3.3-1-5.2-.6-8.7l.3-3 .3-2.3h3l-2-1 1-8h3v-2Z" fill="#C2BEB0"/><path d="M301 537c2.8 4.2 3.2 8 4 13l-2.5 1.3-2.5 1.7v3l-4 1a367 367 0 0 1-1-4.3l-.7-2.4c-.3-2.3-.3-2.3.7-5.3h2l-2-5 6-1v-2Z" fill="#C1BEB1"/><path d="M540 668h24l-3 1v3c-8.3 1-16.3 1-24.7.6l-3.6-.2-8.7-.4 1-2c2.5-.3 5-.5 7.6-.6l2.1-.1 5.3-.3v-1Z" fill="#272418"/><path d="M362 175c-.5 1.9-.5 1.9-2 4-2.7.8-5 1.3-7.8 1.8l-2.2.3a53 53 0 0 1-11 .9l2-1v-2h-7c8.1-4.7 19-5.7 28-4Z" fill="#262115"/><path d="m309 499 4 3c-.5 4.4-3 6.9-6 10h-2l-.8 1.8c-2.2 4-5.6 6.4-9.2 9.2a78 78 0 0 1 5.9-12l1-1.8c2.1-3.7 4.4-7 7.1-10.2Z" fill="#DCD8CB"/><path d="M432 595a1604.7 1604.7 0 0 1 14.6-.2h6c2.4.2 2.4.2 5.4 2.2-2.8 2.8-5.5 2.5-9.3 2.7l-2 .1c-7 .3-13.8-.1-20.7-.8v-1l6-1v-2Z" fill="#262216"/><path d="M369 614c11.7 1.7 11.7 1.7 16 5l-2 4c-7.5-1.2-14.7-2.9-22-5l8-2v-2Z" fill="#444235"/><path d="m702 354 3 1c-1.6 7-3.5 14.2-8 20l-4 2-2 2c.6-3.5 1.5-6.4 3-9.6l1.2-2.5 1.3-2.6 1.3-2.7c3-6.5 3-6.5 4.2-7.6Z" fill="#242417"/><path d="M443 634h60l-1 3c-41-1-41-1-59-2v-1Z" fill="#292116"/><path d="M411 576c7.7-.1 15.3.2 23 1v1h-7l-1 4h7v1l-8.1-.4-2.3-.2A95 95 0 0 1 410 581l1-5Z" fill="#423D30"/><path d="M323 284h2v2h2v2l5 1a27 27 0 0 1-4 8c-2.8 1-5 1-8 1l.6-1.9c.6-2.1.6-2.1-.6-4.1l1.4-4.1 1-2.2c.1-.6.4-1.1.6-1.7Z" fill="#C4C0B2"/><path d="m578 647-2 3 7 1v1l-6.7 1-3.7.6c-5 .6-8.3 1-12.6-1.6 0-3 0-3 1-4 5.6-1 11.3-1.1 17-1Z" fill="#525042"/><path d="m313 522 2 1c.8 4 1.2 7 0 11l1 2h-3l-2 5h-3v-3.3c.2-3.6.2-3.6-1-6.7l1-2h2l-1-3h2l2-4Z" fill="#A7A899"/><path d="M414 611c6.1-.1 12 .2 18 1v1l6 1v4c-9.4.1-18.6 0-28-1v-1l3.4-.4 3.6-.6 1-2-4-2Z" fill="#4B473B"/><path d="m314 584 1.3 1.1c4 3.6 8.3 6.8 12.7 9.9l-1.8.4c-2.6.6-2.6.6-6.2 2.6l-11-10 2-2h3v-2Z" fill="#3F3C31"/><path d="m322 528 2 1 1 7a138 138 0 0 0 2 7l-1.9.4c-2.3.5-2.3.5-4.1 2.6-3-5.4-4.6-9.8-5-16l6 1v-3Z" fill="#3D3B2F"/><path d="m706 618 3 1h1l4 1-1.4 1.3c-1.8 1.8-1.8 1.8-3.6 4.7h-2v4c-1.8 2.7-3 3-6.2 3.7l-2.8.3v-3l3-3 2-5 3-4v-1Z" fill="#3A3628"/><path d="m684 621 2 1v6c-1.8 1.6-1.8 1.6-4 3.1l-4 2.9v2l-3-1v-2h-5c3-3 6-5.7 9.3-8.3.8-.7 1.7-1.4 2.7-2l2-1.7Z" fill="#444333"/><path d="m310 603 1.5 1.1c4.7 3.6 9.4 6.9 14.5 9.9-1.8 3.9-1.8 3.9-4 5l-13-9 2-1 2 1v-2l-3-1v-4Z" fill="#3E3C31"/><path d="m586 218-2 5-22-3 1-3c8-1.1 15-.8 23 1Z" fill="#262317"/><path d="m679.3 395.2 1.7.8c-.5 4.2-2.9 6.4-5.8 9.3l-2.7 2.8c-2.5 1.9-2.5 1.9-4.8 1.7l-1.7-.8c1.4-4.2 3.3-6.7 6.4-9.9l2.3-2.4c2.3-1.7 2.3-1.7 4.6-1.5Z" fill="#323022"/><path d="m591 545-2 5 2 1c-5.9 1.8-10 2-16 1v-2l-3-2a2042.7 2042.7 0 0 1 9.3-2c3.3-.6 6.3-1 9.7-1Z" fill="#444234"/><path d="m573 666-1 2 7 2v1l-8 1-2.3.3c-5 .6-9.7.8-14.7.7v-1h7v-3l-9-1v-1c7-.6 14-1.1 21-1Z" fill="#525042"/><path d="M352 663h8l1 2c2.1.5 2.1.5 4.6.6l2.5.3 1.9.1-2 2 2 2a56 56 0 0 1-19-2l1-5Z" fill="#37362A"/><path d="m721 544 2 1c-.5 6-2.4 10.6-5 16l-4-1c-.5-5.5 1-9.5 4-14l3-2Z" fill="#343224"/><path d="m709 594 1 2-1 3h2c-.6 4-2.6 6.2-5 9.3l-2.3 2.7-1.7 2c-3-3.4-3-3.4-2.9-6 1.1-2.5 2.5-4 4.3-6 2.1-2.3 3.9-4.4 5.6-7Z" fill="#3E3D30"/><path d="M276 523h3c2 2 2 2 2 4h-2l1 4h-2l-.8 2.2c-1.3 3-2.9 5.4-4.8 8.1l-2 2.7-1.4 2c-.7-1.6-.7-1.6-1-4 1-2.4 2.1-4.6 3.4-7 2.1-3.9 4-7.5 4.6-12Z" fill="#B1AC9F"/><path d="M303 283h2v6l3 1-1 2 4 1c-.6 2-.6 2-2 4-5.2 1.4-5.2 1.4-8 0-.4-9.4-.4-9.4 2-14Z" fill="#A19D90"/><path d="m609 564 1 3 3 2a937.2 937.2 0 0 1-9.4 3.3c-5.3 1.8-5.3 1.8-8.6.7l2-3-3-2 6.4-2 3.6-1.1c3-.9 3-.9 5-.9Z" fill="#434034"/><path d="M716 372h2c-.3 5.8-.7 12.7-5 17-3.6.7-3.6.7-7 1l3.9-7.9 1-2.2 1.2-2.2 1-2c.9-1.7.9-1.7 2.9-3.7Z" fill="#2B291D"/><path d="M717 476h2v24h-1l-1-7-1 7h-1l-1-23 1 2h2v-3Z" fill="#282519"/><path d="M728 338h2c-.5 7.3-1.9 14-4 21l-2-2-2 1c-1.6-4-.4-7 1-11l2-3 1-2h2v-4Z" fill="#3A3729"/><path d="m591 664-3 1c-.7 2-.7 2-1 4-1.7 1.7-4 1.2-6.3 1.2h-3c-2.7-.2-4.3-.8-6.7-2.2 5.5-5 13-4.1 20-4Z" fill="#514F40"/><path d="M306 544c1.9.2 1.9.2 4 1 1.3 2 1.3 2 2.3 4.3l1 2.4c.7 2.3.7 2.3.7 6.3l-5 1a417.9 417.9 0 0 1-3.1-6c-.9-2-.9-2-.9-5l2-2-1-2Z" fill="#2D2A1D"/><path d="m643 443-1 5-7.8 2-2.2.7c-5.7 1.4-5.7 1.4-9 .3h2v-2h4v-4c9.4-2.3 9.4-2.3 14-2Z" fill="#2B291B"/><path d="M361 515c2.5 3.2 4.7 6.6 7 10l3 4h-9c-3.2-3.3-4-4.3-4-9l2-1c.7-2 .7-2 1-4Z" fill="#353226"/><path d="M670 302c2.2 3.3 2.2 4.1 2.2 7.9v5.8l-.1 3-.1 7.3-1-2h-2l-1 2v-18h2v-6Z" fill="#1B1A0D"/><path d="M421 594h23v1l-2.1.1-2.8.3-2.7.2c-2.6.2-2.6.2-4.4 2.4l8 1v1c-8.4.1-16.6.1-25-1v-1h9v-3l-3-1Z" fill="#4E4A3D"/><path d="M427 551h19v2l2 2h-20l-1-4Z" fill="#211B0E"/><path d="M650 470c5.5 2.4 5.5 2.4 7.5 5 .5 2 .5 2-.4 4.3L656 481l-5-1-1 2c-2-3.4-2.3-6-2-10l2-2Z" fill="#B4B1A2"/><path d="M526 594h14l-4 1v2h5c-2 2-2 2-4 2.2H528.8l-2.9-.1-7-.1c2.3-1.2 4.5-2.2 7-3v-2Z" fill="#261F15"/><path d="m552 592-2 4 4 2-7.3.6-2.1.2c-3.9.3-5.3.4-8.6-1.8v-2l-6-1v-1a223 223 0 0 1 22-1Z" fill="#544E42"/><path d="M536 562h33l-4 2-1 1 5 1v1h-6.4l-3.6.1c-3-.1-3-.1-5-1.1v-2l-18-1v-1Z" fill="#464435"/><path d="M244 523c3 1 3 1 6 3l-.6 1.9A192 192 0 0 0 245 545c-2-2-2-2-2.2-4.7V534c.2-2.5.6-4.5 1.2-6.9v-4Z" fill="#B7B4A8"/><path d="M381 201c-3.5 3.4-7 3.5-11.8 3.7h-2l-5.2.3-1-5c7.2-1 13-1.7 20 1Z" fill="#2A281B"/><path d="m636 652-3 4 2 1a17.6 17.6 0 0 1-10.7 1.8l-2.9-.3c-2.4-.5-2.4-.5-4.4-2.5l7.3-2.6 2-.7c6.3-2.2 6.3-2.2 9.7-.7Z" fill="#464436"/><path d="M379 631c11-.2 22 .4 33 1v1l-18 1v1l-21 1v-1l7-1-1-3Z" fill="#4B483C"/><path d="m258 605 3 2v2h2c1.6 2 1.6 2 3.4 4.8 2.2 3 4.3 6.2 6.6 9.2l-4 2a540 540 0 0 1-3.4-4.3l-2-2.3a13.6 13.6 0 0 1-2.6-6.4h-2l-1-7Z" fill="#A3A194"/><path d="M371 413a9.8 9.8 0 0 1-7.2 3.3l-3.6-.1h-3.5l-2.7-.2-1-4c5.9-1.2 12.7-2.5 18 1Z" fill="#242315"/><path d="M293 280h3a42.5 42.5 0 0 1-8 17c-2.8 1-2.8 1-5 1l1-2.8c1-3 1.1-4.3 0-7.2l2-1 4 2 3-9Z" fill="#6D6A5D"/><path d="M614 481c3 1 3 1 4.2 3 1.3 5 1.5 10-.2 15-2-1-2-1-4-3l1 4h-2l.2-3.4.3-4.4.1-2.2c.2-3 .4-6 .4-9Z" fill="#989789"/><path d="m720 590 2 1-.6 1.7c-.6 2.4-.6 2.4.2 5l.4 2.3-2 2c-3.1-.4-3.1-.4-6-1-.8-1.6-.8-1.6-1-4 4-5.5 4-5.5 7-7Z" fill="#F1EFE1"/><path d="M698 625h4c-.6 3.4-1.8 5.4-4 8h4v2h-2v2h-2v2h-2l-2 4h-3l1.5-1.2c2-2.4 1.7-3.8 1.5-6.8l-2-1c3.6-4.9 3.6-4.9 7-6l-1-3Z" fill="#625E4F"/><path d="m254 256 5 1-2 1-2 6c-1.1 2.7-2.4 5.3-3.6 7.9l-1 2-2.4 5.1c-1.6-3.1-.1-6 .8-9.3l.5-2c1.1-4.1 2.6-7.9 4.7-11.7Z" fill="#C8C6B6"/><path d="M394.8 232.8h3.3l3.3.1 2.6.1v2l20 1v1a2251 2251 0 0 1-24 .2h-3.8c-3.2-.2-3.2-.2-6.2-2.2 2-2 2-2 4.8-2.2Z" fill="#333123"/><path d="m592 625-1 3 5 1v1a1573.8 1573.8 0 0 1-9.8 2c-4.1.7-8 1.2-12.2 1v-1h5l1-2 2-1 1-1-4-2a70 70 0 0 1 13-1Z" fill="#535042"/><path d="m316 493 1 2-4-1-.8 1.8a24.7 24.7 0 0 1-5.2 6.2l-4-3c3.6-6.8 5.1-9.3 13-6Z" fill="#3E3A2C"/><path d="M245 383h1l1 7 8-6 2 1c-.9 4.6-1.4 6.5-5.1 9.4L249 396l-1-3h-3v-10Z" fill="#423F31"/><path d="m638 610-2 5 2 1c-5.3 3-5.3 3-8.7 2.8a688 688 0 0 1-5.3-1.8v-2l5.3-2.5 3-1.4c2.7-1.1 2.7-1.1 5.7-1.1Z" fill="#403F30"/><path d="M606 375v3l3 2-6.3.6-3.5.3c-2.7 0-4.6 0-7.2-.9v-2l-2-2 5.8-.5 3.2-.3a97 97 0 0 1 7-.2Z" fill="#343224"/><path d="M404 611c10.6-.2 10.6-.2 15 1l-1 2 2 2a88 88 0 0 1-17-1l1-4Z" fill="#211E11"/><path d="m289 559 3 1c1.7 3.6 1.7 3.6 3 7l-3.3.4c-2.6.4-5.1.9-7.7 1.6l-1-5 1.9-.8c2.4-1.2 2.4-1.2 4.1-4.2Z" fill="#D4D2C5"/><path d="m263 522 1 2h3c.8 1.6.8 1.6 1 4-2.3 3.3-2.3 3.3-5 6h-2l-2-6h-2l-1 2 1-4 5 1 1-5Z" fill="#ECE9D7"/><path d="M262 466c1.3 3.8.8 6.1 0 10-1.8 2.3-3.5 3.3-6 5-1.2 2.6-1.2 2.6-2 5h-3a45 45 0 0 1 6.6-13.4l1.3-2 3.1-4.6Z" fill="#2D2A1E"/><path d="M574 590v3l2 2-12 1v-4h-10v-1l7.2-1 2-.4c3.9-.5 7-.6 10.8.4Z" fill="#524D42"/><path d="m627 575-1 3 3 1c-2 2-3.3 2.6-6 3.6l-2 .8c-2 .6-2 .6-5 .6 1.9-3.9 1.9-3.9 3-5l-4-1a518.5 518.5 0 0 1 7.6-3.2c2.4-.8 2.4-.8 4.4.2Z" fill="#464638"/><path d="m667 378 2 4a339 339 0 0 1-4.3 4.6l-2.3 2.5c-2.4 1.9-2.4 1.9-4.7 1.7l-1.7-.8a23 23 0 0 1 5.5-7.7l1.8-1.8c1.7-1.5 1.7-1.5 3.7-2.5Z" fill="#232213"/><path d="m619 638-1 2 5 1a18 18 0 0 1-8.2 3.1l-2.7.5-2.1.4v-3h-6c2.8-1.9 4.9-2.7 8-3.7l2.7-.8c2.3-.5 2.3-.5 4.3.5Z" fill="#494639"/><path d="m272 568 2 1-1 3h2a16 16 0 0 1 3 4l-1 3c-3.6 1.7-3.6 1.7-7 3l-.4-2c-.4-2-.4-2-1.6-3 .3-2 .3-2 1-4l2-1c.7-2 .7-2 1-4Z" fill="#C3C3B6"/><path d="M707 430c2.7.2 4.5.5 6.4 2.4l3.6 4.6-1 2-5 1c-3.6-3.9-3.6-3.9-5-6 .2-2.4.2-2.4 1-4Z" fill="#424033"/><path d="M257 371c-2 2-2 2-5 4v3l2 1c-2.3 1.6-2.3 1.6-5 3-2.3-.8-2.3-.8-4-2l1-3-2-1c4.4-3.7 7.2-5.2 13-5Z" fill="#3E3C2E"/><path d="M654 304c2.1 3.2 2.2 3.9 2.2 7.4V316.7l-.1 2.7-.1 6.6h-1l-1-7-1 10h-1v-19h2v-6Z" fill="#19190B"/><path d="m662 655 2 1a32 32 0 0 1 1 9l-5-2v2h-3l1-4h-5c2.9-2.2 5.8-4.3 9-6Z" fill="#686455"/><path d="m418 549 40 1v1l-30 1v3h-9v-1l5-1-1-2c-2.5-.7-2.5-.7-5-1v-1Z" fill="#7D786B"/><path d="m299 533 3 1-1 5h-2l-1 2h-2l2 2-1 2h-2l-1 3a20.1 20.1 0 0 1-1-10c1.8-2.4 3.4-3.4 6-5Z" fill="#5A574A"/><path d="M278 370h9v7l-9 2-2-5 6-2-4-2Z" fill="#4C4A3D"/><path d="m411 549 13 1 1 4h-14v-5Z" fill="#1E1A0C"/><path d="M339 588c4 .6 6.9 1.5 10 4 .3 2.7.3 2.7 0 5-3 .3-5 0-7.8-1.1-2.2-1.9-2.2-1.9-2.5-5 0-1 .2-2 .3-2.9Z" fill="#312F24"/><path d="M730 493h1c1.2 8.3 1 16.6 1 25h-1l-1-9h-2l-.1-6.3-.1-3.6c.2-3.1.2-3.1 2.2-6.1Z" fill="#2A2619"/><path d="M696 437c3.7.3 4.8.8 7.3 3.6l1.7 2.4-3 5-7-7c.4-2.1.4-2.1 1-4Z" fill="#424031"/><path d="m647 296 2.4 1c2.4 1.1 2.4 1.1 4.6 1 1 4.3 1 7.7 0 12h-2l-1 2-1-10h-2l-1-6Z" fill="#3A3A2C"/><path d="m624 178 11 3-1 6-11-3 1-6Z" fill="#29271A"/><path d="m396 609 15 1v1l-7 1v2l6 1v1c-4.8 0-9.2 0-14-1v-6Z" fill="#4B483B"/><path d="m690 412 2 1c0 2.3-.2 3.8-1 6-2.4 2.3-2.4 2.3-5 4l-3-1v2l-3-1 3.3-3.8 1.9-2.2c1.5-1.7 3.1-3.4 4.8-5Z" fill="#2E2C1E"/><path d="M255 528h4l2 6h2l1-3h2l-2 6-1.8-.7-2.2-.3c-1.8 1.4-1.8 1.4-3 3l-1-6h-2l1-5Z" fill="#B9B5A3"/><path d="M697 496h1l1 5h4l-1 11-4-4-1 8h-2l2-20Z" fill="#5B5749"/><path d="m371 452-1 4h5v1l-14 3-1-3c2.8-4.2 6-5 11-5Z" fill="#424032"/><path d="M399.7 589.8h2.4l1.9.2-.6 1.9c-.6 2.1-.6 2.1.6 4.1-7.4.4-7.4.4-10.5-1.5L392 593c2.4-3 3.9-3.4 7.7-3.2Z" fill="#393427"/><path d="m692 531 2 2-1 1.6c-1.2 2.4-1.2 2.4-1.3 5.5l-.7 2.9c-2.6 1.4-2.6 1.4-5 2-.8-2.1-.8-2.1-1-5 2-3.4 4-6.4 7-9Z" fill="#353425"/><path d="M278 375v5l-9 3-1-2 1-2-3-1c7.3-3.4 7.3-3.4 12-3Z" fill="#39382B"/><path d="M361 287c1.6 1.3 1.6 1.3 3 3-.3 2.2-.3 2.2-1 4h3l-1 3c-4.8-.9-4.8-.9-7-2l-1 2c-.8-1.6-.8-1.6-1-4 1.5-2.2 3.2-4 5-6Z" fill="#A7A394"/><path d="m657 357 3 1c.8 1.8.8 1.8 1 4-1 2-1 2-2.4 3.8l-1.5 1.8-1.1 1.4-1.8-.5c-2.3-.6-2.3-.6-5.2-.5l1.2-1.4 1.7-1.9 1.6-1.8c1.5-1.9 2.5-3.7 3.5-5.9Z" fill="#2D2B1D"/><path d="M273 274c.6 2 1 3.8 1 6l3 1c-.8 4.8-.8 4.8-3 7l-1-2-2 3-2-1 .9-5.3.5-3c.6-2.7.6-2.7 2.6-5.7Z" fill="#B8B5A8"/><path d="M349 177v2l2 1a31.7 31.7 0 0 1-12 2l2-1v-2h-7c5.5-3 8.8-3 15-2Z" fill="#3B3629"/><path d="M695 634v6l-3 1v2l-5 1c-1.1-3.8-1.1-3.8 0-6h2v-2c4.9-2 4.9-2 6-2Z" fill="#333021"/><path d="m584 572-2 2 2 2c-7.8 1-7.8 1-10 1v1h-5c.6-2.4.6-2.4 2-5 4.3-1.3 8.6-1 13-1Z" fill="#2C2A1B"/><path d="M303 545c2 3 2 3 2 5l-2.5 1.4-2.5 1.6v3l-4 1-1-7 2-1 2-1c2-1 2-1 4-1v-2Z" fill="#CDCABD"/><path d="m664 433 2 1-5 5-2 2.4c-2 1.6-2 1.6-4.8 1.4l-2.2-.8c.2-1.8.2-1.8 1-4 2.4-1.5 2.4-1.5 5.4-2.8l3-1.3 2.6-.9Z" fill="#2E2C20"/><path d="m647 663 2 1v2l-2 2 2 2-10 3 1-4-1-2a332.7 332.7 0 0 1 6-3.2l2-.8Z" fill="#434133"/><path d="m324 513 4 4c-1 3-1.8 4-4 6l1 2-3 3h-1c-.5-8.2-.5-8.2 1.5-11.4l1.5-1.6v-2Z" fill="#CAC8BD"/><path d="m348 746 .1 7.4v2l-.1 5.6-2 2v-15h-18v-1l8.9-.5 2.5-.1 2.5-.2 2.2-.1 3.9-.1Z" fill="#353225"/><path d="m411.2 591.3 3.8.4 3 .3v1l-7 1v2l-10 1c0-3 0-3 1-4.7 3-2 5.6-1.3 9.2-1Z" fill="#443F32"/><path d="m248 555 6 1c-.6 3.4-2 5.3-4 8l-2 5c-1.1-3.3-1-5.2-.6-8.7l.3-3 .3-2.3Z" fill="#928F82"/><path d="m624 657 2 1v2l-4.3 1.5-2.4.8c-2.3.7-2.3.7-5.3.7l-1-4c3.6-2.3 6.8-2.2 11-2Z" fill="#383729"/><path d="M605 603v4c-3.2 2.2-4.3 2.2-8 2l-1-3-3-2c8-2.3 8-2.3 12-1Z" fill="#403D30"/><path d="m285 543 2 4 1.2 2c1 2.4.7 3.6-.2 6h-3v-2l-3-1 1-1-3-1 5-7Z" fill="#5F5B4E"/><path d="M346 542c2.5 2.3 2.5 2.3 5 5v3l1 6-3.4-2.8-2-1.5c-1.8-2-2.4-3-2.6-5.7l2-2v-2Z" fill="#3A372C"/><path d="m614 531 1 4 3-1a16.5 16.5 0 0 1-7 8h-2c-.9-2.7-.9-2.7-1-6 1.8-2.1 3.7-3.4 6-5Z" fill="#3D3A2B"/><path d="m639 518 3 2-1.3 1.9-1.6 2.4-1.7 2.4C636 529 636 529 635 532h2l-1 3-1.8-1c-2.3-1.2-2.3-1.2-5.2-1l1.4-1.8c3.4-4.2 6.4-8.2 8.6-13.2Z" fill="#3C3A2D"/><path d="M667 455c6.8 2.6 6.8 2.6 9 6l-1.4 1.4c-1.7 1.5-1.7 1.5-2.6 3.6l-3-3.3-1.8-1.8c-1.2-1.9-1.2-1.9-.9-4.1l.7-1.8Z" fill="#474534"/><path d="m588 203 9 1v5c-5.2-.6-10-1.4-15-3v-1h7l-1-2Z" fill="#242115"/><path d="M349 643a9191.4 9191.4 0 0 1 16 3c-3.8 2-3.8 2-6 2v-2l-4 2v2l-8-1 1-3 2-1-1-2Z" fill="#555447"/><path d="m730 554 7 7c-.4 2.6-.4 2.6-1 5-2.8-.4-3.8-.8-5.7-3-1.3-2-1.3-2-2.3-4l2-5Z" fill="#686556"/><path d="m671 370 5 2-6 9-5-2 6-9Z" fill="#2A2A1B"/><path d="M343 288h3v2h3v2h-2l-1 2c-1 2-1 2-2 3h-5l1-1.8c1-2 1.5-4 2-6.2l1-1Z" fill="#999788"/><path d="M729 286h1c1 4 1 7.8 1 12h-3l-1 5h-1l-1-11 3-2c.7-2 .7-2 1-4Z" fill="#39372B"/><path d="M311 646c5.8 1.8 5.8 1.8 8 4-2.1 1.6-2.1 1.6-5 3a35 35 0 0 1-8-3v-2h5v-2Z" fill="#413F33"/><path d="m371 631 17 1v1l-7 1v1l-4.8.1-2.7.1c-2.5-.2-2.5-.2-5.5-2.2h3v-2Z" fill="#1B1A0F"/><path d="M307 578a17 17 0 0 1 7 5v3c-2.3.7-2.3.7-5 1a9 9 0 0 1-3.8-5l-.2-2 2-2ZM561 561h5.4l3-.1c2.6.1 2.6.1 4.6 1.1v2l2 2h-13l2-3-4-2Z" fill="#3D3B2E"/><path d="M624 540c1 3 1 3 .3 5.6-1.5 2.7-2.4 3.3-5.3 4.4l-1-4-2 2-3-1 4.4-3.5 2.4-2c2.2-1.5 2.2-1.5 4.2-1.5Z" fill="#3A3829"/><path d="M715 466h2l.6 4.8c0 1 .2 1.8.3 2.7.1 2.5.1 2.5-.9 5.5h-2l-2 3v-10h2v-6Z" fill="#434033"/><path d="m266 270 1 4h-2l-.8 2.8c-1.1 3-2.2 4.8-4.2 7.2v-2h-3l1-7 5 1 1-4h2v-2Z" fill="#9F9B8C"/><path d="m709 240 2 2.4c1.4 1.9 1.4 1.9 3 3.6v5l-4 1c-3-5.4-3-5.4-2.8-8.3l1.8-3.7Z" fill="#29261B"/><path d="m641 668-2 6h-8v-4a19 19 0 0 1 10-2Z" fill="#353426"/><path d="M698 582h2v3h2v-3h2c-.5 3.8-2.2 5.5-5 8v-2l-2.4 1.6-2.6 1.4-2-1 2.9-4 1.6-2.3 1.5-1.7Z" fill="#424130"/><path d="M628 635c-.9 4.9-.9 4.9-2 6-5.5.2-5.5.2-8-1 .8-2 .8-2 2-4 3-1 5-1 8-1Z" fill="#323023"/><path d="m691 615 4 1v2l-4 1-.3 2.4c-.7 2.6-.7 2.6-3.7 4.6l-3-3 7-8Z" fill="#28281A"/><path d="M603 585h-2v2h3v2c-3.7 1.2-7.2 1-11 1l1-5c3.4-.8 5.7-1.1 9 0Z" fill="#312E21"/><path d="m656 575 2 1-3 4h3c-1.1 3-1.7 3.8-4.6 5.3l-2.4.7c-.8-2.2-.8-2.2-1-5 2.4-2.8 2.4-2.8 5-5l1-1Z" fill="#413F32"/><path d="m322 287 2 3 3 4-1 2 2 1-8 1 .6-1.9c.6-2.1.6-2.1-.6-4.1l2-5Z" fill="#8F8C7D"/><path d="M642 186c3.4.3 3.4.3 7 1 1.4 2 1.4 2 2 4-1.6 1.2-1.6 1.2-4 2-3.3-1.4-3.3-1.4-6-3l1-4Z" fill="#222216"/><path d="M608.2 621h3.8v2h3v2h-3.3c-3.6-.2-3.6-.2-6.7 1v-2h-4v-2c2.8-1 4.4-1.1 7.2-1Z" fill="#343225"/><path d="m609 583 1 4c-5.6 1.1-5.6 1.1-9 0v-2h-6c5-3.4 8-3 14-2Z" fill="#49463B"/><path d="M736 547h1c.2 4.5 0 7.9-2 12l-3-1c-.8-2.1-.8-2.1-1-5 1.4-2.4 3-4 5-6Z" fill="#262316"/><path d="M393 544c2.7 0 5.3.6 8 1v4l-8 1v-3l-2-1 2-2Z" fill="#2E2C21"/><path d="m277 511 1 2h2l1-2-1 5 4 1h-5l-1 3-4-3 3-6Zm-6 7h3l-1 3-2-1v-2Z" fill="#3E392B"/><path d="m717 366 5 1c-.7 4.4-2.2 8-4 12-1-3-1-3.9 0-7l-3 1 2-7Z" fill="#373628"/><path d="m565 199 13 1-4 1v2c-4.4 1.1-8.5 1-13 1l4-2v-3Z" fill="#2F2B21"/><path d="M578 646c3.7-.3 3.7-.3 7 0l-1 3 3 1c-1 1-1 1-3.5 1.1h-6.1l-2.4-.1c1-2.5 1-2.5 3-5Z" fill="#2D2C1E"/><path d="m346 605 2 2-3 1v-2h-2l1.5 1.9c1.5 2.1 1.5 2.1 1.5 4.1-5.8-1.9-5.8-1.9-8-3v-4c3-1.5 4.9-.7 8 0Z" fill="#434236"/><path d="m314 584 4 4h-2l2 6c-4.4-1.4-6.3-3.3-9-7l5-1v-2Z" fill="#4F4D40"/><path d="m695 565-1 6-2.4.4-2.6.6-1 2h-2c.3-3.5.8-4.8 3.4-7.3 2.6-1.7 2.6-1.7 5.6-1.7Z" fill="#322F22"/><path d="m618 527 4 1-2 6-2 1-2-1-1 2-2-2c3.9-5.9 3.9-5.9 5-7Z" fill="#2E2C1D"/><path d="M621 510c-.6 6.5-.6 6.5-2.6 9l-1.4 1-3-1 1-2.3c1.2-2.7 1.2-2.7 1-5.7 2-1 2-1 5-1Z" fill="#303020"/><path d="M704 444c3.8 1.3 4.3 2.5 6 6v3l-7-2c-.6-1.8-.6-1.8-1-4l2-3Z" fill="#353325"/><path d="M717 255h2c3 5.3 3 5.3 2.7 8.9l-.7 2.1-5-2c-.1-6.8-.1-6.8 1-9Z" fill="#373529"/><path d="m576 217-1 4-13-1 1-3 4.3-.6 2.3-.3c2.4-.1 4.2.2 6.4.9Z" fill="#2E281E"/><path d="M683 581c-.6 3.6-1.7 5-4.6 7.3l-1.9 1.5-1.5 1.2c-.6-1.8-.6-1.8-1-4 4-6 4-6 9-6Z" fill="#454236"/><path d="M732 364h2l2 2 2-2-.4 4.3-.2 2.4c-.4 2.3-.4 2.3-2.4 5.3v-5l-4 1 1-8Z" fill="#615E4F"/><path d="M362 628c5 .5 10 1.1 15 2v1h-6v4l-9-1 4-2v-1h-2v-2l-2-1Z" fill="#5A594D"/><path d="M271 623c2.6 1 3.8 1.6 5.3 4.1l.7 1.9h3l-1 4-3-1v-3l-3 1c-1.6-1.8-1.6-1.8-3-4l1-3Z" fill="#D7D5C8"/><path d="m343 606 10 2-2 5c-3.2-.3-4.6-.6-6.8-3-1.2-2-1.2-2-1.2-4Z" fill="#2B2A1D"/><path d="M330 597v5c-6.6-1.5-6.6-1.5-8.4-4.1l-.6-1.9c3.2-1.6 5.7 0 9 1Z" fill="#262318"/><path d="M258 588h2l1 1 4 1-.6 1.8c-.7 2.5-.7 2.5 1.6 5.2l-5 1c-2-3.7-3-5.7-3-10Z" fill="#949285"/><path d="m326 473 2 1 1 4c-3 2-3 2-5.2 1.6l-1.8-.6c-2.2 2.7-2.2 2.7-2 5h-2l-1-3 9-8Z" fill="#2E2C1E"/><path d="M631 346h4c-.8 4.8-.8 4.8-3 7l-2-1-6 2 3-3.4 1.6-2 2.4-2.6Z" fill="#252315"/><path d="M651 189c4 1.2 6.8 2.4 10 5a619.5 619.5 0 0 1-7.6.9c-2.4.1-2.4.1-4.4-.9.9-3.9.9-3.9 2-5Z" fill="#302F26"/><path d="m324 615 6 1 1 6c-3.7-.5-5.6-1.1-8-4l1-3Z" fill="#312E23"/><path d="m673.3 611.3 1.7.7c-1.1 3.3-2 4-5.1 5.8L667 619l-1-5c4.4-3 4.4-3 7.3-2.7Z" fill="#353124"/><path d="M275 591c1.6 1.7 1.6 1.7 3 4-.3 2.8-.3 2.8-1 5-3.2-.6-5-1.4-7-4v-2l5-3Z" fill="#393629"/><path d="m716 500 2 1c.4 7.5.4 7.5-1.5 10l-1.5 1c-1.6-1.6-1.2-3.2-1.2-5.4V504c.2-2.1.2-2.1 2.2-4.1Z" fill="#222013"/><path d="M729 463c1.8 3 2.2 5.2 2.1 8.8v2.4l-.1 1.8-2-2-2 3c-1.5-3-1-5.7-1-9l3 1v-6Z" fill="#333023"/><path d="M730 370c3 0 3 0 6 1l-2 5h-3v2h-2l-1 2c.5-3.5.9-6.7 2-10Z" fill="#363324"/><path d="M714 309h1l1 14h1v7l-1-2h-2l-1 3 1-22Z" fill="#201D0F"/><path d="M347 624a198290886 198290886 0 0 0 14 3l-1.8.9c-2.4 1.1-2.4 1.1-5.2 3.1h-4l1-4h-2v-2l-2-1Z" fill="#49483C"/><path d="m267 607 6 2-3 2 3 1c.7 2 .7 2 1 4-2.5 1.2-4.3 1-7 1l2-8h-2v-2Z" fill="#5C594D"/><path d="M699 588c-.5 3.8-2 5.6-5 8h-4c.1-2.3.1-2.3 1-5 4.9-3 4.9-3 8-3Z" fill="#2C2A1B"/><path d="M582 571c4 .6 7.3 1.4 11 3-3 2-4.2 2.3-7.7 2.6l-2.4.3-1.9.1 1-6Z" fill="#413F30"/><path d="m590 536-2.4 1.4c-2.7 1.3-2.7 1.3-3.6 3.6l3 1-7 1v-3l-3-2c9-4 9-4 13-2Z" fill="#625F50"/><path d="M724 523h6l-.4 4.3-.2 2.4c-.4 2.3-.4 2.3-2.4 5.3l-.4-2.9c-.3-3.2-.3-3.2-2.6-5.1v-4Z" fill="#464338"/><path d="m615 511 2 4h-2l-1 4h3l-1 4-3-2-4 3-2-1 1.2-1.6 1.7-2.1 1.6-2.2c1.4-2 2.5-3.9 3.5-6.1Z" fill="#4F4E3E"/><path d="M362 456c-.9 3.9-.9 3.9-2 5h-6l-1-4c3.4-1.6 5.4-2.3 9-1Z" fill="#2E2C1E"/><path d="m269 285 2 4 2-4h1c-.4 5.4-.4 5.4-1 8-1.8 1.3-2.8 2-5 2-.1-7.8-.1-7.8 1-10Z" fill="#6C685B"/><path d="M596 682v2l4 3h-8v-2l-2-.4-2-.6-1-2c3.4-.8 5.7-1.1 9 0Z" fill="#6B695A"/><path d="M359 646v2l6-1-2 4h-8v-2l-3-1c2.6-1.5 3.9-2 7-2Z" fill="#2B281E"/><path d="m400.8 633.9 6.2.1 1 2c-5.7 1-11.2 1.1-17 1h-9v-1l3.5-.2 4.4-.2 2.3-.2c3.2-.1 5.8-1.3 8.6-1.5Z" fill="#464235"/><path d="m353 609 5 1-1 6-8-2 2-1 2-4Z" fill="#403D31"/><path d="M271 597v7l-6 1-.4-2.4c-.5-2.6-.5-2.6-1.6-4.6 2.9-.8 4.9-1 8-1Z" fill="#B0AEA2"/><path d="m642 585 2 1c-3 4-4.8 6.7-9.8 8-3.2 0-3.2 0-5.2-2l2.6-1.3 3.3-1.6 3.4-1.7c2.5-1.1 2.5-1.1 3.7-2.4Z" fill="#444335"/><path d="M276 523h3c2 2 2 2 2 4h-2l1 4h-2v2l-3-1 1-9Z" fill="#B0AC9D"/><path d="m257.2 403.3 1.8.7-4 1 1 4-5 4-2-4 2.8-3c.7-1 .7-1 1.5-1.8 1.7-1.2 1.7-1.2 3.9-.9Z" fill="#211F10"/><path d="M645 319h3c-.9 8.6-.9 8.6-3 12-1.6-2.3-1.6-2.3-3-5 .8-2.5 1.8-4.7 3-7Z" fill="#303021"/><path d="m377 172-1 4h-4v-2h-6l-1 2v-2h-6v-1c6-.9 11.9-1.1 18-1Z" fill="#454034"/><path d="m258 581 3 2h3v2l2 1-1 3-2.9-1c-3-1.4-3-1.4-5.1 0v-6l1-1Z" fill="#817F72"/><path d="m591 545-2 5 2 1-7 1 .6-1.9.4-2.1-2-2c2.9-.8 4.9-1 8-1Z" fill="#454335"/><path d="m690 529 6 1-3 9-2-4 1-2-4 2 2-6Z" fill="#4D4B3C"/><path d="M732 472v6h-2v2h-2v9h-1l-1-14c5-3 5-3 6-3Z" fill="#585448"/><path d="m614 374-1 5h-7l-1-2c2.6-3.5 4.8-3.3 9-3Z" fill="#2F2C1F"/><path d="m715 337-1 9h-4c.6-6.2.6-6.2 1-8 2-1 2-1 4-1Z" fill="#222012"/><path d="M597 605v5l-7 1-1-5c3-1 5-1 8-1Z" fill="#343125"/><path d="M651 563c-1 2.6-1.6 3.8-4.1 5.3l-1.9.7-2-4c1.9-3.7 4.6-3 8-2Z" fill="#2C2A1D"/><path d="M673 525c2.1 2.1 2.1 2.1 4 5-.8 3.3-.8 3.3-2 6l-1.4-1.5c-1.5-1.7-1.5-1.7-3.6-1.5 1.9-5.8 1.9-5.8 3-8Z" fill="#474536"/><path d="m301 511 4 3a93.4 93.4 0 0 1-10 9 72 72 0 0 1 6-12Z" fill="#A29E90"/><path d="M697 507h4c0 3-.2 6-1 9-2.6 2-2.6 2-5 3v-3h2v-9Z" fill="#211A0E"/><path d="M727 500h1a1085 1085 0 0 1 .9 10.5c0 2.9 0 4.8-.9 7.5h-2l-1 3 2-21Z" fill="#5B574B"/><path d="m351 458 3 1v2l3 1-4.4 2-2.4 1.1c-2.2.9-2.2.9-4.2.9 1.4-3 3-5.4 5-8Z" fill="#403E30"/><path d="m721 451 5 1c.2 2.9.2 2.9 0 6l-3 2c-2-2-2-2-2.1-5.6l.1-3.4Z" fill="#2E2B1F"/><path d="M629 445h5l2 5-13 2 2-1v-2h4v-4Z" fill="#4E4D3F"/><path d="M731 376h3l-2 7-3-3v-2h2v-2Zm-4 2 2 3-3 5h-2c1.9-5.8 1.9-5.8 3-8Z" fill="#4C4A3B"/><path d="m652 367 3 1c-1.4 3.4-3 5-6 7l-3-3c4.4-4 4.4-4 6-5Z" fill="#232015"/><path d="m268 616 4 1-1 2 5 1 1 5c-3 0-3 0-4.6-1.5l-1.6-1.9-1.6-1.9C268 618 268 618 268 616Z" fill="#2C2A1D"/><path d="M516 596h8l-1 2 7 1v1h-17l3-3v-1Z" fill="#514B3F"/><path d="M432 595h10c-2 3-2 3-3.8 3.7-2.5.3-5 .4-7.4.4H428l-2-.1v-1l6-1v-2Z" fill="#201A0E"/><path d="m594 585 1 3-1 1 2 2-7 1v-5l-3-1c2.9-.8 4.9-1 8-1Z" fill="#4D4B3D"/><path d="m732 565 4 2-3 3h2l-1 4-4-1c-.2-3.7-.2-4.8 2-8Z" fill="#C1BFB0"/><path d="M405 561h14v1l-7 1-1 3-6-2v-3Z" fill="#373327"/><path d="M715.4 437.7c2.6.3 2.6.3 4.4 2.2 1.2 2.1 1.2 2.1 1.2 4.1l-2.3-.5c-2.7-.6-2.7-.6-5.7-.5l-1-4c1-1 1-1 3.4-1.3Z" fill="#413F33"/><path d="m386 271-1 5-6 1 1-3 2 1v-2l-6 1-1-2c7.4-2.4 7.4-2.4 11-1Z" fill="#353325"/><path d="m335 656-1 5h-5v-3h-2v-2c3.3-1.1 4.7-.8 8 0Z" fill="#2E2B21"/><path d="M540 611v1l-8 1v1l-17-1v-1a196 196 0 0 1 25-1Z" fill="#656255"/><path d="m258 605 3 2v2h2c2 3 2.5 4.6 3 8l-4-1-1-4h-2l-1-7Z" fill="#777568"/><path d="m380 605 11 2v1l-6 2 1 2-7-1 3-5-2-1Z" fill="#575547"/><path d="m376 584 8 1-1 6-5-1v-4l-2-2Z" fill="#2B2719"/><path d="M306 544c1.9.1 1.9.1 4 1 1.3 3 1.3 3 2 6l-3-1-3 3c-.6-2.4-.6-2.4-1-5l2-2-1-2Z" fill="#373224"/><path d="M702 493v12l-1-4h-2l-1 3c-.4-7.5-.4-7.5 1.4-10 1.6-1 1.6-1 2.6-1Z" fill="#1F1C0E"/><path d="m672 650 5 2v2l-8 4c0-3.6 1-5 3-8Z" fill="#353223"/><path d="m706 618 3 1h1l4 1-6 6v-2h-2c-1-3-1-3 0-6Z" fill="#454233"/><path d="m288 518-4 7-5-4h2l1-3c3-1 3-1 6 0Z" fill="#C1BCAE"/><path d="M654 318h1l1 14-1-3h-2v-5l-.1-2.7c.1-2.3.1-2.3 1.1-3.3Zm-3 8 2 4h-2v-4Z" fill="#2C2B1B"/><path d="m572 217-3.3.4c-3.6.5-3.6.5-6.7 1.6l-6-1c1-2 1-2 2.6-2.6 4.9-.8 9.2-1.1 13.4 1.6Z" fill="#252014"/><path d="m630 671 1 2c2.5.7 2.5.7 5 1-2.6 2.6-4.5 2.5-8 3l-3-5c3-1 3-1 5-1Z" fill="#444233"/><path d="m344 643 7 1-1 4h-6v-2l-3-1h3v-2Z" fill="#2C291C"/><path d="M273 616c2.7 1 3.8 1.5 5 4l1 2 3 1c-3.8 1.1-3.8 1.1-6 0l-1-3c-2-.7-2-.7-4-1v-2l2-1Z" fill="#434137"/><path d="m626 595 2 1v4c-2.7 1.4-5 1-8 1 0-2 0-2 1.3-3.6 1.7-1.4 1.7-1.4 4.7-2.4Z" fill="#302D21"/><path d="M716 592a16.4 16.4 0 0 1-5 8l-2-1c.3-2.4.3-2.4 1-5 3-2 3-2 6-2Z" fill="#201D11"/><path d="m644 584 2 1 1 5-6 3c-.8-1.7-.8-1.7-1-4 2-2.8 2-2.8 4-5Z" fill="#3C3C2E"/><path d="m253 544 2 1-1 4h2v2h-2l-1 2v-2l-4-1 1-4h3v-2Z" fill="#969283"/><path d="M257 518c1 3 1 3.9 0 7l-3-1-1 2h-2l2-7 4-1Z" fill="#222011"/><path d="m357 500 3 1c1 2 1 2 1.7 4.6l.7 2.5.6 1.9-4 2-2-12Z" fill="#ACAA9C"/><path d="m647 256 4 2-1 5-2 1-4-6 3-2Z" fill="#252316"/><path d="M573 666c2-.3 2-.3 4.1-.2l3.9.2-1 4-9-1 2-3Z" fill="#211F10"/><path d="m606 661-3 3 3 2-8 1-1-6c3.4-.8 5.7-1.1 9 0Z" fill="#59584A"/><path d="m307 602 3 1 1 4 2 1v2c-5.7-1.5-5.7-1.5-7.4-4.1l-.6-1.9h2v-2Z" fill="#242417"/><path d="m277 508 6 1-1 3-2.3.2c-3 .6-3 .6-4.5 3.4L274 518l-1-2c.8-2 .8-2 2-4.1l1-2.2 1-1.7Z" fill="#2B2819"/><path d="m315 497 3 2 3 1a22.8 22.8 0 0 1-8 5l-1-3c1.4-2.7 1.4-2.7 3-5Z" fill="#797667"/><path d="M618 489h1c.1 6.6.1 6.6-1 10-2-1-2-1-4-3l1 4h-2l1-7 4 1v-2l-2-1h2v-2Z" fill="#BFBEB0"/><path d="m258 478 1 2c-1.2 2.8-1.2 2.8-3 6.1-.5 1.1-1 2.2-1.7 3.3L253 492h-3l.9-1.7 2.1-4.4 1-2 1-2.1c1-1.8 1-1.8 3-3.8Z" fill="#1F1C0F"/><path d="M730 478h2v9l-2-1-2 2v-8h2v-2Z" fill="#1E1B0E"/><path d="M644 373c2.7.3 2.7.3 5 1-1.4 3.2-2 4-5 6l-3-4c1.2-1.6 1.2-1.6 3-3Z" fill="#2B2820"/><path d="m534 884 2 1v2l-3 2-1 3c-2.6 1.2-2.6 1.2-5 2 1.4-4.4 3.6-6.9 7-10Z" fill="#373525"/><path d="m368.8 646.7 3.2.3v1h-6v2l2 1 1 2-9-1c3-3.6 4.1-5 8.8-5.3Z" fill="#5A554B"/><path d="m300.2 639.4 1.8.6v5c-4.8-.9-4.8-.9-7-2v-2c3-2 3-2 5.2-1.6Z" fill="#2E2B1F"/><path d="M286 612c3.4-.2 3.4-.2 7 0l2 3-6 2-3-3v-2Z" fill="#323225"/><path d="M560 610h8l1 4h-9l2-2-2-2Z" fill="#201C10"/><path d="m289 578 2 5-3 1-2 2c-2-3-2-3-2-6 3-2 3-2 5-2Z" fill="#3E3D32"/><path d="M296 557c2.5 2.2 3.4 3.7 4 7l-4-1v-2h-2l-1 3-1-4h2v-2l2-1Z" fill="#434033"/><path d="M386 541c3.7.5 5.8.9 9 3l-3 2 1 3-5-1v-2h2v-3l-4-2Z" fill="#413E33"/><path d="m335 507 4 1 1 5c-3 0-3 0-6-1l1-5Z" fill="#BBB8AB"/><path d="m620 492 5 2v6h-5v-8Z" fill="#1E1E0F"/><path d="m351 460-5 6-4-2v-2c5.6-3.1 5.6-3.1 9-2Z" fill="#2A2819"/><path d="m721 390 4 4c-1 3-1.8 4.8-4 7l-1-4h2l-1-2h-2l2-5Z" fill="#494536"/><path d="M634 341h3v3l2 1-4 4v-3l-4-1c1.3-2 1.3-2 3-4Z" fill="#2F2D1F"/><path d="m347 203-1 4 2 1-6 1v-2l-2-1v-2a24 24 0 0 1 7-1Z" fill="#2D2A1D"/><path d="m611 642-1 4h-6l-1-2c1-2 1-2 2.9-2.7 2.1-.3 2.1-.3 5.1.7Z" fill="#282619"/><path d="M717 595h2v2h2l-1 2-2-1 1 4-6-2 1-4 3 1v-2Z" fill="#C7C5B7"/><path d="M584 587h5l2 4c-2.7 1.4-5 1-8 1l1-5Z" fill="#242114"/><path d="M619 545v6l-5 2-1-5c4.9-3 4.9-3 6-3Z" fill="#29271A"/><path d="m299 543 5 1-1 3a125 125 0 0 1-5 2l-1 2-3-1 1-4 4-1v-2Z" fill="#A4A194"/><path d="M253 534h2c1.1 3.3.8 5.6 0 9l-3 1c-1.5-3.8-.4-6.3 1-10Z" fill="#8F8A79"/><path d="M350 474c-1.5 4.7-4.9 5.9-9 8l-2-2 4.4-3 2.4-1.7c2.2-1.3 2.2-1.3 4.2-1.3Z" fill="#4A493B"/><path d="M329 242c-1.5 3.8-3.8 5.6-7 8 .3-3.4.3-3.4 1-7 2.4-1.9 3.2-2.4 6-1Z" fill="#302E20"/><path d="M366 602h6l-1 5h-5v-5Z" fill="#302D21"/><path d="M729 560c1.6 1.2 1.6 1.2 3 3-.3 2.4-.3 2.4-1 5l-.6 2.3-.4 1.7h-2c.5-2.8 1.1-5.3 2-8h-2l1-4Z" fill="#282516"/><path d="m713 556 .9 2c1 2.2 1 2.2 3.1 3l-2 4v-2l-5 1c1.9-5.8 1.9-5.8 3-8Z" fill="#4A4839"/><path d="M417 551c2.9-.2 2.9-.2 6 0l2 3h-14v-1h6v-2Z" fill="#332E20"/><path d="m672 532 2 1v3h-2v2l-4 1 1-6 3-1Z" fill="#2C2A1B"/><path d="m724 527 3 1v7l-4-1v-6l1-1Z" fill="#2C2A1D"/><path d="m694 375 3 1-4 7-2-1v-2l-2-1c2-2 2-2 5-4Z" fill="#2C2C1F"/><path d="m637 358 5 1c-.3 1.9-.3 1.9-1 4l-3 2-1-2-3-2 3-1v-2Z" fill="#333324"/><path d="m599 185-2 1v4h-7c2.2-4.8 3.8-5.1 9-5Z" fill="#2A271B"/><path d="m602.3 173 2.4.3 2.4.4c.7 0 1.3.2 1.9.3v1h-6v4c-2.9-.6-3.9-.9-6-3 1.7-2.2 2.4-3 5.3-3Z" fill="#49473A"/><path d="m335 657 6 1-4 3 2 3-7-2 1-3h2v-2Z" fill="#524F44"/><path d="m714 610 2 4-1 3-6 1c1.4-3 3-5.4 5-8Z" fill="#4D4A3B"/><path d="m638 610-2 5 2 1-4 1-1-3-2-2c2.6-1.5 3.9-2 7-2Z" fill="#494739"/><path d="m658 597 4 1v2l2 1-5 2-3-3 2-3Z" fill="#383526"/><path d="M291 587h4l1 2.9c.9 3 .9 3 2 5.1-2.4-.3-2.4-.3-5-1-1.8-2.6-2-3.8-2-7Z" fill="#262619"/><path d="m616 563-3 5-4-1c.3-2 .3-2 1-4 3-1 3-1 6 0Z" fill="#232114"/><path d="m284 556 7 1v3h-2l-3 3-2-4 1-1-1-2Z" fill="#8B8A7B"/><path d="m372 548 5 2-2 1v2c-1.8.7-1.8.7-4 1-1.8-1.4-1.8-1.4-3-3h3l1-3Z" fill="#3A3429"/><path d="M298 406c2 3 2 3 2 5-3.7 1.2-6.2.6-10 0 2.6-2 5-3.6 8-5Z" fill="#2A271B"/><path d="M677 265c1.6 1.8 1.6 1.8 3 4l-1 3h-2l-1 2-2-6 3-3Z" fill="#29291D"/><path d="M623 616h6v4l-7 1 1-5Z" fill="#333223"/><path d="m376 605 6 1v4h-7v-2h3v-2l-2-1Z" fill="#2D2B1E"/><path d="m664 592 2 1-.5 1.8c-.6 2.3-.6 2.3-.5 5.2h-3c-1.7-2-1.7-2-3-4l5-4Z" fill="#4A4839"/><path d="m259 586 2.9 1c2.9 1.1 2.9 1.1 5.1 1l2 5-4-1v-2l-4-1v2l-2-1 1-2-2-1 1-1Z" fill="#C3C0B4"/><path d="m693 561 1 2 3-1 1 3-3 3-2-2-3-1 3-4Z" fill="#474438"/><path d="m395 558 3 1v1l2 1-1 2c-6.6.3-6.6.3-10-2l2.4-.4 2.6-.6 1-2Z" fill="#393229"/><path d="M639 548v5l-3 1-3-2v-2c3-2 3-2 6-2Z" fill="#232112"/><path d="M626 537h3c-1.6 6.8-1.6 6.8-5 9v-7l2-2Z" fill="#252215"/><path d="M308 532h4l-1 9h-3v-9Z" fill="#C4C4B6"/><path d="m352 531 4 1v5l-5-1 1-5Z" fill="#29241A"/><path d="M324 518c1.1 3.3.8 5.6 0 9l-3 1v-7h2l1-3Z" fill="#848477"/><path d="m625 480 4 1c1.4 2.7 1 5 1 8l-4-2v-2.4c.2-2.6.2-2.6-1-4.6Z" fill="#CECCBF"/><path d="M654 304c2.4 3.6 2.2 5.7 2 10l-4 1v-5h2v-6Z" fill="#1F1F11"/><path d="m272 222 2 2c-.8 3-.8 3-2 6-2 .8-2 .8-4 1l-2 1c1.7-3.6 3.8-6.7 6-10Z" fill="#838075"/><path d="m624 178 8 2c-3 2-5.6 3-9 4l1-6Z" fill="#444135"/><path d="m330 617 4 1c1.1 3.8 1.1 3.8 0 6l-5-1 1-6Z" fill="#39382A"/><path d="m664 614 3 1v5l-3 1-2-3-2-1c1.8-1.6 1.8-1.6 4-3Z" fill="#4C493C"/><path d="M369 614v3c-3 1-5 1-8 0 1.8-3.6 4.3-3.1 8-3Z" fill="#1D1C0E"/><path d="m295 588 5 5-2 2c-1.5-1.3-1.5-1.3-3-3v-4Zm0 7h3l-1 4-2-4Z" fill="#444437"/><path d="M632 572c-1 3-1.8 4.8-4 7l-2-1 1-5c2-1 2-1 5-1Z" fill="#363729"/><path d="M701 557c-.8 4.8-.8 4.8-3 7-2.1-.4-2.1-.4-4-1v-2c4.5-4 4.5-4 7-4Z" fill="#302D20"/><path d="m387 555 8 2-2 1v2h-5v-2l-2-1 1-2Z" fill="#373128"/><path d="M242 537h1l1 5.9.7 3.3c.3 2.8.3 2.8-.7 4.8h-2v-14Z" fill="#585447"/><path d="M590 535c1.2 2.5.8 3.4 0 6h-6c1-2.6 1.6-3.8 4.1-5.3l1.9-.7Z" fill="#2C2A1B"/><path d="m259 516-1 3c-3 1-3 1-6 0l-1-3c3.3-1.1 4.7-.8 8 0Z" fill="#4A483A"/><path d="m712 512 3 3 3-1-1 8c-5-4.3-5-4.3-5.3-7.8l.3-2.2Z" fill="#534F40"/><path d="M617 506h3l1 2h2l-1 5-1-3-5 1 1-5Z" fill="#474737"/><path d="m335 483 2 1-6 8-4-2 8-7Z" fill="#535142"/><path d="m701 471 1 7-4-2-2 2 1-6c2-1 2-1 4-1Z" fill="#4D4C3C"/><path d="m664 433 2 1-7 7-2-1c.1-1.8.1-1.8 1-4 3-1.8 3-1.8 6-3Z" fill="#282618"/><path d="M666 434v5l-6 2c2.4-7 2.4-7 6-7Z" fill="#434133"/><path d="M259 383c2 3 2 3 2 5l-6 2 2-6 2-1Z" fill="#282618"/><path d="M257 371c-2.1 2.1-3.8 3-6.5 4.2l-2.4 1-2.1.8-2-1c4.4-3.7 7.2-5.2 13-5Z" fill="#DEDACC"/><path d="m630 351 2 1c-1.8 3.9-1.8 3.9-4 5l-3-1c.8-2 .8-2 2-4l3-1Z" fill="#363425"/><path d="m663 344 5 1-1 5-3 1-2-4 1-3Z" fill="#29291D"/><path d="m717 263 1 2 5-1-2 7h-2c-1.3-3-2-4.8-2-8Z" fill="#2B291C"/><path d="M626 205c5.8.8 5.8.8 8 3h-3l-1 2-5-1 1-4Z" fill="#262519"/><path d="m602 662-4 1v2l2 1-7 1c.3-2 .3-2 1-4 3-1 5-1 8-1Z" fill="#201E11"/><path d="M609 661v3l-7 1c.3-2 .3-2 1-4 3-1 3-1 6 0Z" fill="#212012"/><path d="M387 650c1 3.9 1 3.9 1 5h-8l2-2-1-2 6-1Z" fill="#464439"/><path d="M569 648h7l-2 1v3h-5l-1-2 1-2Z" fill="#1D1B0E"/><path d="M599 642h5l-1 2-4-2Zm0 2c3.4.5 5 1 8 3l-7 1-1-4Z" fill="#525043"/><path d="m305 622-2 4-5-1 1-3c2.5-1.2 3.4-.8 6 0Z" fill="#303023"/><path d="M672 608h2l1 2 3 2c-3 1-3 1-4.9.4-2.9-.6-4.5.4-7.1 1.6l6-6Z" fill="#4E4D3F"/><path d="m608 602 1 5h-6v-4c2-1 2-1 5-1Z" fill="#2B281B"/><path d="m656 598 2 1v6l-3-1v-2l-3-1 4-3Z" fill="#484638"/><path d="m658 575 3 2-1 4-5-1c1.9-3.9 1.9-3.9 3-5Z" fill="#313023"/><path d="m273 573 2 3h-2l2 4-5 2c-.8-1.7-.8-1.7-1-4 2-2.8 2-2.8 4-5Z" fill="#D2D1C6"/><path d="M563 550h7l-1 4h-7l2-2-1-2Z" fill="#201E10"/><path d="M578 547h8l-2 5-4-1h2v-2h-4v-2Z" fill="#373526"/><path d="M283 548h2l2 2 2 1-1 4h-3v-2l-3-1h2l-1-4Z" fill="#878576"/><path d="M646 537h3l1 3-2 1-1 3-4-2c1.3-2.5 1.3-2.5 3-5Z" fill="#292717"/><path d="m263 522 1 2h3l1 4-5 1-1-6 1-1Z" fill="#CFCBBA"/><path d="M726 518h3l1 5-4 2c-1-3-1-3.9 0-7Z" fill="#252016"/><path d="m628 516 3 1c-.3 2-.3 2-1 4l-3 1-2-1c1.9-3.9 1.9-3.9 3-5Z" fill="#2C2A1D"/><path d="M732 478h1v11l-4 2v-5l2-1 1-7Z" fill="#424034"/><path d="M277 422h2c-1.4 3.4-3 5-6 7l-4-2 5.4-3c1.6-.9 1.6-.9 2.6-2Z" fill="#282215"/><path d="m294.1 226 2.9 1-5 4c-2-2-2-2-3-5 2-1 2-1 5.1 0Z" fill="#29261A"/><path d="M619 178h5v5h-5v-5Z" fill="#211E11"/><path d="M362 175a17.1 17.1 0 0 1-11 2l-3-2c4.8-1.4 9.2-.7 14 0Z" fill="#444034"/><path d="M365 666h5l-2 2 2 2c-6.6.3-6.6.3-10-2h5v-2Z" fill="#1C1A0C"/><path d="M316 631c5.8.8 5.8.8 8 3h-5v-2h-2v4l-3-1 2-4Z" fill="#454538"/><path d="m601 602 4 1v4l-3 2-3-1 2-6Z" fill="#514F41"/><path d="m330 598 4 2h-2v5c-4.9-1.8-4.9-1.8-6-4l4 1v-4Z" fill="#4E4C40"/><path d="m349 593 6 2-2 1-1 2c-2 .8-2 .8-4 1l-2-2 2-2 1-2Z" fill="#4C4A3F"/><path d="m271 584 1 2 2 1 1 4h-4l-2-4h2v-3Z" fill="#545146"/><path d="m726 577 3 2v3h-2l1 5-3-1v-8l1-1Z" fill="#A4A293"/><path d="m299 533 3 1-1 5h-2l-1 2-1-5h2v-3Z" fill="#4B473B"/><path d="M709 526h1l1 5h3l-2 4v-2l-5 1 2-8Z" fill="#59584B"/><path d="M262 499h4c-.5 3.8-1.5 6-4 9v-9Z" fill="#1B180A"/><path d="M315 487v5c-2.7 1.3-4.2.7-7 0 4.8-5 4.8-5 7-5Z" fill="#272516"/><path d="M635 474c2 .3 2 .3 4 1l1 3-4 4-1-8Z" fill="#8B897A"/><path d="m295 435 2 2-3 4-3-1c.3-2 .3-2 1-4l3-1Z" fill="#201D11"/><path d="m617 427 6 1v4l-6-1v-4Z" fill="#302E1F"/><path d="M245 383h1l.4 3.4.6 3.6 2 1 2 4h-3v-2h-3v-10Z" fill="#7B796A"/><path d="m616 359-1 4 3 1-6 2v-6c2-1 2-1 4-1Z" fill="#353224"/><path d="m285 287 4 2-1 5h-2l-2-6 1-1Z" fill="#BBB8AC"/><path d="m249 268 3 1-1.4 4.4-.7 2.5c-.9 2.1-.9 2.1-2.9 3.1l2-11Z" fill="#8B8979"/><path d="m359 221-1 3h-2v2l2 1-4 1-2-5c4.8-2 4.8-2 7-2Z" fill="#2E2D1E"/><path d="m671 217 4 2-2 6-2-1c-.7-3-.7-3-1-6l1-1Z" fill="#2A281C"/><path d="m332 600 5 1-2 5h-3v-6Z" fill="#322F25"/><path d="m303 600 5 1-2 5-3-1v-5Z" fill="#353528"/><path d="m395 590 4 1-1 2 2 2-8-1c2-3 2-3 3-4Z" fill="#1E180B"/><path d="m727 562 1 2h2l-1 4-4 1c.9-4.8.9-4.8 2-7Z" fill="#444031"/><path d="M309 526h2v2h2l-2 5-4-2 1-2h2l-1-3Z" fill="#8F8D80"/><path d="m637 526 3 1-1 4-4 1c.9-4.9.9-4.9 2-6Z" fill="#2B291C"/><path d="M630 500h1v8h2v3l-4 1 1-12Z" fill="#4F4E42"/><path d="M707 430c2.5.3 2.5.3 5 1l1 2-6 2-1-4 1-1Z" fill="#5D5C4D"/><path d="m691 410 4 2-1 4h-3v-6Z" fill="#3E3B2E"/><path d="M318 398h2l1 5-7 2c1.2-2.5 2.5-4.7 4-7Z" fill="#302D20"/><path d="m272 391 3 1-1 2 2 1-6 3 2-7Z" fill="#262316"/><path d="m683 345 1 3-1 2 3 1-1 2-2-1-1 2h-2l3-9Z" fill="#312E20"/><path d="m728 297 3 1v6l-2-2-2 4v-8l1-1Z" fill="#1C180C"/><path d="M354 266h2v3l2 1-4 3-2-1 2-6Z" fill="#242213"/><path d="m538 758 3 1-4 5-3-1 4-5Z" fill="#323123"/><path d="m325 635 4 1 1 6h-2v-3h-3v-4Z" fill="#2C2B1E"/><path d="M698 625h4c-.4 2.9-.8 3.8-3 5.8l-2 1.2-1-4h3l-1-3Z" fill="#6D6A5B"/><path d="M592 625h4v4h-5c0-3 0-3 1-4Z" fill="#201E10"/><path d="M629 593h2l3 4-6 2v-5l1-1Z" fill="#383529"/><path d="M722 532c1.1 1.7 1.1 1.7 2 4-.8 2.7-.8 2.7-2 5l-2 1c.5-3.5.9-6.7 2-10Z" fill="#4E4C3F"/><path d="m692 531 2 2-3 6h-3c.5-3.7 1.1-5.6 4-8Z" fill="#222011"/><path d="m355 294 2 2 3-1 4 3h-10l1-4Z" fill="#676455"/><path d="m322 287 2 3 3 4-4 1v-2l-3-1 2-5Z" fill="#656052"/><path d="m309 284 5 1c-.6 2.9-.9 3.9-3 6l-2-7Z" fill="#DEDCCE"/><path d="M256 283c3 1 3 1 4 3-1.4 2.6-1.4 2.6-3 5h-1v-8Z" fill="#807B6D"/><path d="M273 274c1 3.4 1 6.5 1 10h-2v-2h-2c1.9-6.9 1.9-6.9 3-8Z" fill="#CECBBD"/><path d="m655 266 4 4-1 2-3 1c-1.1-4.8-1.1-4.8 0-7Z" fill="#19190C"/><path d="m309 258 1 2h3c-1.2 3.7-3 4.7-6 7 .6-3 1.2-6 2-9Z" fill="#201B0F"/><path d="m705 238 4 2v4l-2 2c-1.6-1.8-1.6-1.8-3-4 .3-2.3.3-2.3 1-4Z" fill="#1F1C11"/><path d="M679 213c3.4.8 3.4.8 7 2l1 3-3 1-5-6Z" fill="#222115"/><path d="M603 175h5v4h-5v-4Z" fill="#181609"/><path d="m657 660 2 2h-2v3h-4v-4c1.9-.6 1.9-.6 4-1Z" fill="#292517"/><path d="m319 650 1 4c-3.8 1.1-3.8 1.1-6 0v-2c3-2 3-2 5-2Z" fill="#29291B"/><path d="m672 632 3 1-1 4h-2v-2l-4 1 4-4Z" fill="#2C2C1C"/><path d="m287 630 4 2-2 4-2-1v-2l-2-1 2-2Z" fill="#2D2B1E"/><path d="m643 630 2 3-4 1-1-2-4-2c2.7-1.4 4.1-.9 7 0Z" fill="#4C4A3A"/><path d="m652 625-1 5h-2v-4l-3-1c2.5-1.2 3.4-.8 6 0Z" fill="#454334"/><path d="M392 609h4v4l3 1-7-1v-4Z" fill="#1E1B0E"/><path d="m323 595 3 1v5c-2-.8-2-.8-4-2l-1-3 2-1Z" fill="#332F24"/><path d="m299 594 4 2a181 181 0 0 1-4 4h-1v-5l1-1Z" fill="#373629"/><path d="m340 533 2 3-5 4-1-5 4-2Z" fill="#38362C"/><path d="M274 529c2 1 2 1 2.8 2.9.2 2.1.2 2.1-1.2 3.9L274 537v-2h-2l2-6Z" fill="#DCD8CA"/><path d="m664 509 2 1-1 3-3-1 2-3Zm-5 3 2 3-3 2 1-5Z" fill="#444132"/><path d="m638 337 2 2c-.4 2.6-.4 2.6-1 5h-2v-3l-2-1 3-1v-2Z" fill="#202010"/><path d="m694 832 1 4c-3.8 1.8-6 2.2-10 1v-1l3.4-.9c3.6-.8 3.6-.8 5.6-3.1Z" fill="#5A5A4A"/><path d="M454 817h2v8h-3l1-8Z" fill="#535144"/><path d="m636 652-3 4 2 1h-3l-1-3-2-2c3.1-1 4-1 7 0Z" fill="#504F42"/><path d="m346 625 6 1-2 4h-3l-1-5Z" fill="#262317"/><path d="m698 608 2 1 1 4-3 2-1-6 1-1Z" fill="#252417"/><path d="m262 604 4 1v3l-5 1 1-5Z" fill="#322F22"/><path d="m665 593 3 1-1 4-2 1-1-5 1-1Z" fill="#292717"/><path d="M573 589h5l-2 5h-5l1-2c1-1.8 1-1.8 1-3Z" fill="#251F14"/><path d="m642 585 2 1-5 5-4-2c5.3-3.2 5.3-3.2 7-4Z" fill="#5D5C4F"/><path d="m378 586 1 3c1.5 1.7 1.5 1.7 3 3l-8-2v-2l4-2Z" fill="#514D41"/><path d="m283 560 3 1v3h-3l-1 3c-.6-1.8-.6-1.8-1-4l2-3Z" fill="#B9B7A9"/><path d="m314 556 2 4-2 .4-2 .6-1 2-1-4 4-1v-2Z" fill="#474538"/><path d="m355 552 3 1-1 4-1-2h-2l-1 2-1-3 3-2Z" fill="#252316"/><path d="m283 521-1 7-3 1 .6-2.4c.7-2.6.7-2.6-.6-4.6 3-1 3-1 4-1Z" fill="#F3F0DF"/><path d="m348 500 2 2c-.4 3.1-.4 3.1-1 6l-3-1 2-7Z" fill="#B6B4A7"/><path d="m310 504 2 2-5 6-1-4 2-1v-2l2-1Z" fill="#ABA699"/><path d="M266 490h2a53 53 0 0 1-3 9l-3-1 4-8Z" fill="#282518"/><path d="M715 466v6h-2l-1 2v-7c2-1 2-1 3-1Z" fill="#333124"/><path d="m673 461 4 1-1 5h-3c-1.1-3.8-1.1-3.8 0-6Z" fill="#2E2C1E"/><path d="M271 407h2l1 4-4 2c-.6-1.9-.6-1.9-1-4l2-2Z" fill="#211F12"/><path d="m725 388 2 1-1 5-3-1-1-3 3-2Z" fill="#2E2C1D"/><path d="m671 370 5 2-3 4-4-3 2-3Z" fill="#302E22"/><path d="M714 328h2l1 6-5-2c1-3 1-3 2-4Z" fill="#302C20"/><path d="M343 288h3v2h3v2l-4 1-3-4 1-1Z" fill="#C5C2B3"/><path d="m254 256 5 1-2 1-2 4v-2h-2l1-4Z" fill="#D6D5C5"/><path d="m709 240 3 3-1 3c-2 .7-2 .7-4 1 0-3.1.5-4.4 2-7Z" fill="#343025"/><path d="m669 200 5 2-5 4c-1-3-1-3 0-6Z" fill="#313026"/><path d="M361 200h4l2 5h-5l-1-5Z" fill="#302E21"/><path d="M582 666h6l-1 3h-6l1-3Z" fill="#242212"/><path d="m308 583 6 1v2l-5 1-1-4Z" fill="#232114"/><path d="m573 575 7 2v1l-10 1 3-4Z" fill="#615F50"/><path d="M700 551h4l-1 6c-1.5-1.3-1.5-1.3-3-3v-3Z" fill="#302E21"/><path d="M690 543c-1 3-1.8 4.8-4 7l-1-6c3-1 3-1 5-1Z" fill="#48483A"/><path d="m259 535 4 1-1 4-4-1 1-4Z" fill="#E5E1D0"/><path d="M254 479h1l-1 7h-3c1.9-5.9 1.9-5.9 3-7Z" fill="#342F23"/><path d="m614 481 3 1 1 5-3 1-1-7Z" fill="#787669"/><path d="M295 479c1.5 2.6 2 3.9 2 7l-1-2-3 1c0-3 0-3 2-6Z" fill="#312A1F"/><path d="m650 470 6 3-2 2v-2l-6 1 2-4Z" fill="#848172"/><path d="m637 423 2 1-2 1v-2Zm-4 2 7 1-2 2h-4l-1-3Z" fill="#232212"/><path d="M249 390h5l-2 4-4-2 1-2Z" fill="#292816"/><path d="m606 375 5 1-1 3-5-1 1-3Z" fill="#1E1C0F"/><path d="M721 356h3l1 4-5 1 1-5Z" fill="#211F10"/><path d="m641 334 2 1c-.8 4.8-.8 4.8-3 7-.6-2.3-.6-2.3-1-5l2-3Z" fill="#303121"/><path d="M293 280h3c-1.9 5.8-1.9 5.8-3 8l-2-1 2-7Z" fill="#D3D0C4"/><path d="M705 612a34 34 0 0 1 3 3v2l-4-1 1-4Z" fill="#A4A292"/><path d="m275 581 1 3-4-1 3-2Z" fill="#9E9D92"/><path d="M288 572h2l-1 3-2-1 1-2Z" fill="#BDBDB2"/><path d="m702 615 2 4-2-1v-3Z" fill="#959384"/><path d="m706 610 3 1-1 2-2-1v-2Z" fill="#AAA899"/><path d="m707 608 3 1-1 2-2-3Z" fill="#CECCBD"/><path d="m279 585 3 1-1 2-2-1v-2Z" fill="#AEADA4"/><path d="m327 523 2 2h-3l1-2Z" fill="#B0AFA3"/><path d="m305 653 2 1h-3l1-1Z" fill="#D0CEBE"/><path d="m300 652 2 1-1 2-1-3Z" fill="#C6C4B4"/><path d="M293 645h2v2h-2v-2Z" fill="#959386"/><path d="M289 641h2v2h-2v-2Z" fill="#A8A699"/><path d="M690 627v3Z" fill="#BFBEAE"/><path d="m715 601 2 3h-2v-3Z" fill="#ABA999"/><path d="M312 540h2v2h-2v-2Z" fill="#B3B3A5"/><path d="m335 515 4 1Z" fill="#9A978A"/><path d="m673 644 3 1Z" fill="#C5C3B4"/><path d="M686 631h2l-1 2-1-2Z" fill="#BFBDAE"/><path d="m687 627 2 1-2 1v-2Z" fill="#B4B3A4"/><path d="M694 621h2l-1 2-1-2Z" fill="#BAB7AB"/><path d="m278 610 2 2h-2v-2Z" fill="#979489"/><path d="M267 605h2l-1 2-1-2Z" fill="#AAA99C"/><path d="M276 580h2l-1 2-1-2Z" fill="#C0BFB7"/><path d="m290 569 1 2-2-1 1-1Z" fill="#B1B0A5"/><path d="m301 562 2 1-2 1v-2Z" fill="#C6C6B9"/><path d="m302 559 2 2h-2v-2Z" fill="#BAB9AC"/><path d="m311 543 2 1-2 1v-2Z" fill="#B9B8AA"/><path d="m328 527 2 1-2 1v-2Z" fill="#B2B0A4"/><path d="m659 649 2 1Z" fill="#D7D5C6"/><path d="m297 648 2 1Z" fill="#D9D7C8"/><path d="m679 638 2 1Z" fill="#B5B6A6"/><path d="m686 636 2 1Z" fill="#A09E8F"/><path d="m689 632 2 1Z" fill="#ADAB9C"/><path d="m700 623 2 1Z" fill="#B7B3A4"/><path d="m282 615 2 1Z" fill="#B3B3A8"/><path d="m282 590 2 1Z" fill="#CBCDC0"/><path d="m279 589 2 1Z" fill="#B5B4A9"/><path d="m284 587 2 1Z" fill="#BCBEB0"/><path d="m291 574 2 1Z" fill="#BEBEB4"/><path d="m288 568 2 1Z" fill="#C6C5BA"/><path d="m318 496 2 1Z" fill="#D6D5C3"/></svg>