<svg width="130" height="108" viewBox="0 0 130 108" fill="none" xmlns="http://www.w3.org/2000/svg">
<path fill-rule="evenodd" clip-rule="evenodd" d="M11.1344 106.156C14.546 91.5854 19.4736 85.155 25.4439 82.9754C31.4143 80.791 38.1428 82.8597 44.8713 84.9331C49.5149 86.3918 54.2533 87.8799 58.6126 88.1478C63.1614 88.4298 67.4262 87.3913 71.1221 83.7342C71.975 82.8562 72.7333 81.4318 73.2072 79.533C73.9653 76.9568 74.4392 73.4507 74.6287 69.3368C75.5764 53.7311 73.6814 29.1683 75.9558 14.2093C76.4296 10.7705 77.1872 7.85441 78.2297 5.70897C79.1774 3.84204 80.3144 2.5805 81.8307 2.25951C83.0626 1.99753 84.4843 2.36452 86.2849 3.36054C89.3175 5.06107 92.9185 8.52941 97.4673 14.155C101.448 19.0796 104.765 24.6273 108.651 29.6652C114.716 37.5518 121.065 45.5447 128.172 51.8724C128.646 52.2725 129.309 52.2324 129.688 51.7839C130.162 51.3343 130.068 50.6451 129.594 50.245C122.581 44.007 116.327 36.118 110.356 28.3422C106.566 23.2914 103.154 17.7295 99.1739 12.792C94.4355 6.87136 90.55 3.25671 87.3279 1.46649C85.0535 0.136504 83.0626 -0.224629 81.3568 0.125863C79.651 0.486976 78.1351 1.60691 76.9979 3.40303C75.4816 5.77977 74.4388 9.41923 73.7754 13.8871C71.501 28.8993 73.3969 53.5506 72.4492 69.2118C72.2597 73.1368 71.7855 76.4848 71.1221 78.9429C70.743 80.4004 70.269 81.5238 69.5109 82.1977C66.3835 85.358 62.6882 86.2147 58.7079 85.9716C54.5381 85.7132 49.9893 84.2558 45.4405 82.8514C38.3329 80.6293 31.0354 78.5889 24.686 80.929C18.3365 83.2727 12.6505 89.9982 9.04932 105.663C8.85978 106.249 9.23867 106.836 9.80727 106.972C10.3759 107.107 11.0396 106.743 11.1344 106.156Z" fill="#1A1A1A"/>
<path fill-rule="evenodd" clip-rule="evenodd" d="M7.66319 105.59C7.56859 105.437 7.37902 105.02 7.28442 104.675C6.71682 102.999 6.14977 100.398 5.96057 99.6346C3.87936 92.8838 2.17655 85.3271 2.17655 78.096C2.17655 77.4898 1.70299 76.9988 1.13539 77C0.473187 77.0012 0 77.4933 0 78.0996C0 85.5398 1.79741 93.3165 3.78402 100.263C4.06782 101.037 4.63542 103.678 5.20303 105.38C5.39223 105.992 5.58198 106.498 5.77118 106.817C5.96038 107.078 6.14921 107.258 6.33842 107.371C6.71682 107.663 7.28497 107.806 7.85258 107.787C8.51478 107.766 9.2714 107.546 10.0282 107.172C11.6364 106.443 13.5282 105.108 15.0418 104.052C15.8932 103.446 16.6502 102.929 17.1232 102.771C21.1911 101.414 25.6369 102.86 29.0425 107.553C29.4209 108.04 30.0837 108.146 30.5567 107.787C31.0297 107.428 31.1241 106.74 30.8403 106.251C26.6779 100.622 21.3801 99.0569 16.4608 100.685C15.231 101.078 12.5826 103.244 10.2176 104.627C9.46078 105.023 8.79803 105.349 8.23042 105.508C8.04122 105.555 7.94662 105.587 7.75742 105.591C7.75742 105.594 7.66319 105.597 7.66319 105.59Z" fill="#1A1A1A"/>
</svg>
