<svg width="586" height="356" viewBox="0 0 586 356" fill="none" xmlns="http://www.w3.org/2000/svg">
<path fill-rule="evenodd" clip-rule="evenodd" d="M586 97.874C560.55 24.2889 236.51 -101.648 62.0094 147.209C40.0106 174.417 42.4157 195.063 72.2375 171.257L162.422 99.2321C166.474 96.0132 172.363 96.6726 175.585 100.714C178.807 104.756 178.14 110.645 174.101 113.864L25.4689 232.573C-19.0188 268.073 0.195775 309.625 41.5464 276.594L196.669 155.789C200.714 152.57 206.609 153.236 209.831 157.271C213.053 161.313 212.393 167.202 208.348 170.421L19.2666 321.443C-4.28763 339.647 7.7836 371.725 57.3887 346.979C133.241 309.142 242.248 206.815 326.864 169.65C390.684 141.614 397.082 157.447 383.508 178.034C376.94 196.701 254.796 263.104 286.317 290.416C304.532 306.185 496.116 185.81 586 97.874Z" fill="#f6ae2d"/>
</svg>
